<svg xmlns="http://www.w3.org/2000/svg" viewBox="0 0 500 500"><g id="freepik--background-complete--inject-71"><path d="M444.71,349.14H264a5.87,5.87,0,0,1-5.86-5.86V80A5.87,5.87,0,0,1,264,74.15H444.71A5.87,5.87,0,0,1,450.57,80V343.28A5.87,5.87,0,0,1,444.71,349.14ZM264,74.4A5.61,5.61,0,0,0,258.35,80V343.28a5.61,5.61,0,0,0,5.61,5.61H444.71a5.61,5.61,0,0,0,5.61-5.61V80a5.61,5.61,0,0,0-5.61-5.61Z" style="fill:#e0e0e0"></path><path d="M236.28,349.14H55.53a5.87,5.87,0,0,1-5.86-5.86V80a5.87,5.87,0,0,1,5.86-5.86H236.28A5.87,5.87,0,0,1,242.14,80V343.28A5.87,5.87,0,0,1,236.28,349.14ZM55.53,74.4A5.61,5.61,0,0,0,49.92,80V343.28a5.61,5.61,0,0,0,5.61,5.61H236.28a5.61,5.61,0,0,0,5.61-5.61V80a5.61,5.61,0,0,0-5.61-5.61Z" style="fill:#e0e0e0"></path><rect x="0.79" y="410.21" width="500" height="0.25" style="fill:#e0e0e0"></rect><rect x="29.27" y="151.33" width="170.3" height="69.54" transform="translate(300.52 71.69) rotate(90)" style="fill:#e0e0e0"></rect><rect x="83.46" y="104.77" width="61.9" height="162.66" style="fill:#f0f0f0"></rect><rect x="113.17" y="100.95" width="4.61" height="170.3" style="fill:#e0e0e0"></rect><rect x="313.99" y="151.33" width="170.3" height="69.54" transform="translate(585.24 -213.04) rotate(90)" style="fill:#e0e0e0"></rect><rect x="368.19" y="104.77" width="61.9" height="162.66" style="fill:#f0f0f0"></rect><rect x="397.9" y="100.95" width="4.61" height="170.3" style="fill:#e0e0e0"></rect><path d="M160.4,267.8a.34.34,0,0,0,.2,0,.5.5,0,0,0,.31-.63c-6.67-19.09,6-28.8,19.36-39.08q1.88-1.42,3.74-2.89c14.58-11.43,13.5-29.28,13.48-29.46a.5.5,0,0,0-.53-.46.49.49,0,0,0-.46.53c0,.18,1,17.51-13.11,28.61-1.24,1-2.49,1.93-3.73,2.88C166,237.78,153.06,247.7,160,267.47A.5.5,0,0,0,160.4,267.8Z" style="fill:#f5f5f5"></path><path d="M219.05,173c-2.07,10.67-12.23,22.28-21.63,20.46S183,177,185,166.36s11.36-17.83,20.76-16S221.12,162.3,219.05,173Z" style="fill:#e0e0e0"></path><path d="M219.05,173c-2.07,10.67-12.23,22.28-21.63,20.46S183,177,185,166.36s11.36-17.83,20.76-16S221.12,162.3,219.05,173Z" style="fill:#e6e6e6"></path><polygon points="196.28 193.14 193.92 195.59 199.75 196.75 198.5 193.56 196.28 193.14" style="fill:#e6e6e6"></polygon><path d="M299.75,221a.54.54,0,0,0,.21-.05.5.5,0,0,0,.22-.67c-8.93-18.13,2.44-29.31,14.48-41.14,1.12-1.1,2.24-2.2,3.35-3.32,13.09-13.11,9.85-30.7,9.82-30.88a.51.51,0,0,0-.59-.39.5.5,0,0,0-.4.58c0,.17,3.17,17.25-9.53,30-1.11,1.11-2.24,2.21-3.36,3.31-12.3,12.09-23.92,23.51-14.66,42.29A.49.49,0,0,0,299.75,221Z" style="fill:#f5f5f5"></path><path d="M346.46,119.71c-.76,10.84-9.43,23.6-19,22.93s-16.36-14.51-15.6-25.35S321,98.21,330.54,98.88,347.22,108.87,346.46,119.71Z" style="fill:#e0e0e0"></path><path d="M346.46,119.71c-.76,10.84-9.43,23.6-19,22.93s-16.36-14.51-15.6-25.35S321,98.21,330.54,98.88,347.22,108.87,346.46,119.71Z" style="fill:#e6e6e6"></path><polygon points="326.31 142.5 324.27 145.22 330.2 145.67 328.56 142.66 326.31 142.5" style="fill:#e6e6e6"></polygon><circle cx="197.52" cy="116.96" r="20.47" style="fill:#e0e0e0"></circle><circle cx="197.52" cy="116.96" r="18.86" transform="translate(38.62 282.62) rotate(-76.83)" style="fill:#fafafa"></circle><rect x="196.86" y="99.81" width="0.71" height="3.93" style="fill:#e0e0e0"></rect><rect x="196.86" y="130.07" width="0.71" height="3.93" style="fill:#e0e0e0"></rect><rect x="180.12" y="116.55" width="3.93" height="0.71" style="fill:#e0e0e0"></rect><rect x="210.37" y="116.55" width="3.93" height="0.71" style="fill:#e0e0e0"></rect><rect x="205.94" y="105.85" width="3.93" height="0.71" transform="translate(-14.2 178.14) rotate(-45.01)" style="fill:#e0e0e0"></rect><rect x="184.55" y="127.25" width="3.93" height="0.71" transform="translate(-35.59 169.3) rotate(-45.01)" style="fill:#e0e0e0"></rect><rect x="186.16" y="104.24" width="0.71" height="3.93" transform="translate(-20.46 163.04) rotate(-45.01)" style="fill:#e0e0e0"></rect><rect x="207.56" y="125.64" width="0.71" height="3.93" transform="translate(-29.33 184.39) rotate(-45)" style="fill:#e0e0e0"></rect><rect x="200" y="114.45" width="0.6" height="7.17" transform="translate(17.09 261.17) rotate(-68.51)" style="fill:#e0e0e0"></rect><polygon points="197.51 117.21 186.51 117.21 186.51 116.6 196.91 116.6 196.91 108.06 197.51 108.06 197.51 117.21" style="fill:#e0e0e0"></polygon></g><g id="freepik--Shadow--inject-71"><path d="M456.76,452.85c0,3-92.64,5.4-206.93,5.4S42.9,455.83,42.9,452.85s92.65-5.41,206.93-5.41S456.76,449.86,456.76,452.85Z" style="fill:#f5f5f5"></path></g><g id="freepik--Balloon--inject-71"><path d="M61.4,209.67a.5.5,0,0,1-.34-.13c-15-13.5-8.64-27.85-1.93-43,.61-1.38,1.22-2.77,1.81-4.16,6.82-15.89-2-30-2.14-30.18a.5.5,0,0,1,.15-.69.48.48,0,0,1,.69.15c.1.14,9.26,14.72,2.22,31.12-.6,1.39-1.21,2.78-1.82,4.16-6.55,14.86-12.74,28.89,1.69,41.91a.5.5,0,0,1,0,.71A.49.49,0,0,1,61.4,209.67Z" style="fill:#e0e0e0"></path><path d="M67.32,102.45c3.18,10,0,24.46-8.81,27.26s-19.79-7.15-23-17.12,1.36-20.3,10.13-23.1S64.14,92.49,67.32,102.45Z" style="fill:#CCC8CC"></path><path d="M67.32,102.45c3.18,10,0,24.46-8.81,27.26s-19.79-7.15-23-17.12,1.36-20.3,10.13-23.1S64.14,92.49,67.32,102.45Z" style="fill:#CCC8CC"></path><g style="opacity:0.2"><path d="M67.32,102.45c3.18,10,0,24.46-8.81,27.26s-19.79-7.15-23-17.12,1.36-20.3,10.13-23.1S64.14,92.49,67.32,102.45Z" style="fill:#fff"></path></g><polygon points="57.42 130 56.56 133.16 62.02 131.45 59.48 129.34 57.42 130" style="fill:#CCC8CC"></polygon></g><g id="freepik--Garland--inject-71"><path d="M255.16,74.72c-90.09,0-200.43-18.93-201.53-19.12l.17-1c1.1.19,111.36,19.1,201.36,19.1s192.19-21,193.21-21.18l.2,1C447.55,53.73,345.25,74.72,255.16,74.72Z"></path><g style="opacity:0.5"><path d="M255.16,74.72c-90.09,0-200.43-18.93-201.53-19.12l.17-1c1.1.19,111.36,19.1,201.36,19.1s192.19-21,193.21-21.18l.2,1C447.55,53.73,345.25,74.72,255.16,74.72Z" style="fill:#fff"></path></g><polygon points="109.86 62.36 123.63 102.36 146.01 66.39 109.86 62.36" style="fill:#CCC8CC"></polygon><polygon points="150.35 66.94 165.15 106.58 186.6 70.04 150.35 66.94"></polygon><polygon points="191 70.63 207.16 109.73 227.34 72.48 191 70.63" style="fill:#CCC8CC"></polygon><polygon points="231.75 72.59 249.5 110.99 268.14 72.94 231.75 72.59"></polygon><polygon points="272.56 72.53 292.25 109.97 308.92 71.02 272.56 72.53" style="fill:#CCC8CC"></polygon><polygon points="313.32 70.72 334.52 107.33 349.59 67.73 313.32 70.72"></polygon><polygon points="394.24 61.67 418.5 96.33 430.11 55.58 394.24 61.67"></polygon><polygon points="70.69 56.73 83.31 97.11 106.72 61.8 70.69 56.73"></polygon><polygon points="355.08 66.69 377.83 102.35 391.18 62.15 355.08 66.69" style="fill:#CCC8CC"></polygon></g><g id="freepik--Table--inject-71"><path d="M237.32,297.7H174.71a2.19,2.19,0,0,1-2.08-2.88l13.6-41.41a2.2,2.2,0,0,1,2.08-1.51h62.61a2.19,2.19,0,0,1,2.08,2.88l-13.6,41.41A2.2,2.2,0,0,1,237.32,297.7Z" style="fill:#CCC8CC"></path><g style="opacity:0.6000000000000001"><path d="M237.32,297.7H174.71a2.19,2.19,0,0,1-2.08-2.88l13.6-41.41a2.2,2.2,0,0,1,2.08-1.51h62.61a2.19,2.19,0,0,1,2.08,2.88l-13.6,41.41A2.2,2.2,0,0,1,237.32,297.7Z" style="fill:#fff"></path></g><g style="opacity:0.4"><path d="M231.66,293.49h-51.1a1.79,1.79,0,0,1-1.7-2.35l11.1-33.8a1.81,1.81,0,0,1,1.7-1.23h51.1a1.79,1.79,0,0,1,1.7,2.35l-11.1,33.8A1.8,1.8,0,0,1,231.66,293.49Z" style="fill:#fff"></path></g><path d="M152.42,296.78l-1.33,4a1.87,1.87,0,0,0,1.78,2.46h82.92a1.86,1.86,0,0,0,1.77-1.28l1.72-5.16Z" style="fill:#CCC8CC"></path><g style="opacity:0.4"><path d="M152.42,296.78l-1.33,4a1.87,1.87,0,0,0,1.78,2.46h82.92a1.86,1.86,0,0,0,1.77-1.28l1.72-5.16Z" style="fill:#fff"></path></g><rect x="139.63" y="303.22" width="226.96" height="7.59"></rect><g style="opacity:0.8"><rect x="139.63" y="303.22" width="226.96" height="7.59" style="fill:#fff"></rect></g><polygon points="156.23 310.81 133.66 452.75 138.19 452.85 166.16 310.81 156.23 310.81"></polygon><g style="opacity:0.8"><polygon points="156.23 310.81 133.66 452.74 138.19 452.84 166.16 310.81 156.23 310.81" style="fill:#fff"></polygon></g><polygon points="352.38 310.81 374.95 452.75 370.42 452.85 342.45 310.81 352.38 310.81"></polygon><g style="opacity:0.8"><polygon points="352.38 310.81 374.95 452.74 370.42 452.84 342.45 310.81 352.38 310.81" style="fill:#fff"></polygon></g><rect x="156.52" y="318.66" width="194.17" height="2.91"></rect><g style="opacity:0.8"><rect x="156.52" y="318.66" width="194.17" height="2.91" style="fill:#fff"></rect></g></g><g id="freepik--character-3--inject-71"><path d="M392.64,99.82a.32.32,0,0,0,.31-.06,1.58,1.58,0,0,1,1.19-.43,1.8,1.8,0,0,1,1.1.63.31.31,0,1,0,.49-.39,2.46,2.46,0,0,0-1.53-.85,2.19,2.19,0,0,0-1.65.57.32.32,0,0,0,.09.53Z"></path><path d="M392.69,101a7.62,7.62,0,0,1-2.67,3c-1.78,1.06,1.11,2.73,1.11,2.73Z" style="fill:#ff5652"></path><path d="M407.39,127.84l-.11.64c-1.1,1.46-3.49.87-5.3.56l-10.45-1.77c.63-.89,2-3.06,2.29-3.51a14.94,14.94,0,0,0,1-2.19,2.33,2.33,0,0,0,.11-.28A2.83,2.83,0,0,0,395,121c.1-.31.21-.63.29-1s.18-.83.26-1.26c0-.17.05-.35.06-.53l0-.39h0l3.19-1.1,5.26-1.8,5.81-2C407.42,117,407.11,122.79,407.39,127.84Z" style="fill:#ff8b7b"></path><path d="M415.8,92s-.75-7.84-11.17-5.41c-9.44,2.21-8.93-.78-12.18,1.41s1.62,12.22,4,12.54,24.3.27,24.3.27S422.06,94.48,415.8,92Z"></path><g style="opacity:0.2"><path d="M399,119.93a7.73,7.73,0,0,1-4.13,1.36A2.83,2.83,0,0,0,395,121c.1-.31.21-.63.29-1s.18-.83.26-1.26c0-.17.05-.35.06-.53l0-.39h0l3.19-1.1,1.58-.19C400.91,117.07,400.45,118.83,399,119.93Z"></path></g><path d="M414.82,105.42a10.6,10.6,0,0,0-9.88-15.09c-8.19.17-13.29,10.55-14.22,17.66-1,7.89,6.64,14.63,14.29,11.13,5.08-2.32,6.6-6.62,9.81-13.7Z" style="fill:#ff8b7b"></path><path d="M412.71,113.33c-3.11,3.32-2,6.38-5.64,6.25-9.9-.34-9.55-14.57-5.34-16.54.81-.38.68-.87.09-1.44a13.22,13.22,0,0,1-1.88,1.84c-2.57,2.08-4.63-.88-3-2.46a3.3,3.3,0,0,0,1-2.2,5.92,5.92,0,0,1-1.14-1.17c-1.48-2.21,1.45-5.68,1.78-5.93,9.44-7.32,21.16,3.88,22.13,9.13C422,107.58,415.82,110,412.71,113.33Z"></path><path d="M415.64,93.08a4.91,4.91,0,0,1,4.66,3.44c1.4,3.64-.28,7.59-1.95,9.46S410.48,99.5,415.64,93.08Z"></path><path d="M403.78,106.61a7.42,7.42,0,0,1-4.88,2.85c-2.57.33-3.48-2.06-2.45-4.29.92-2,3.37-4.6,5.8-3.9s3,3.42,1.53,5.34Z" style="fill:#ff8b7b"></path><path d="M454.73,176.44a11,11,0,0,1-.76,2.95,9.93,9.93,0,0,1-2.33,3.35l-.39.35-.12.1-.05,0-.24.18-.49.35c-.31.2-.62.42-.94.61-.63.37-1.25.71-1.85,1a29,29,0,0,1-6.8,2.14c-.88.15-1.75.29-2.61.38a56.58,56.58,0,0,1-9.3.33l-1.35-.07a95.79,95.79,0,0,1-9.71-1.06,99.56,99.56,0,0,1-10.72-2.31l1.29-9a181.88,181.88,0,0,0,19.9-1.3l.28,0a51,51,0,0,0,7.18-1.49c.21-.05.43-.12.64-.19-.28-.44-.58-.89-.89-1.35s-.73-1.07-1.12-1.61c-1.53-2.19-3.24-4.38-5-6.6-.32-.41-.64-.81-.95-1.22-4.15-5.21-8.58-10.5-12.8-15.66L429.17,134c2.42,2.13,4.28,4.76,6.55,7.54s5.16,6.55,7.27,9.5,4.17,6,6.15,9.23c1,1.63,1.95,3.34,2.87,5.23.46.94.92,1.94,1.35,3.07a21.61,21.61,0,0,1,1.22,4.2A13.38,13.38,0,0,1,454.73,176.44Z" style="fill:#CCC8CC"></path><g style="opacity:0.2"><path d="M434.35,169.82c-1.53-2.19-3.24-4.38-5-6.6l1.54-20.34v.6l4.54,28C435.11,170.9,434.74,170.36,434.35,169.82Z"></path></g><g style="opacity:0.2"><path d="M438.15,187.89a56.58,56.58,0,0,1-9.3.33l-1.35-.07,1-13.69a51,51,0,0,0,7.18-1.49Z"></path></g><path d="M426.06,371.69l0,19.91-10,.72-3.52-18.71C417.13,370.56,421.64,369.83,426.06,371.69Z" style="fill:#ff8b7b"></path><path d="M425.73,389.52c1,2.63,1,13.39,1,13.39l-21.22,0c-1.26-3.89.69-6.54,3.16-6.9a6.87,6.87,0,0,0,3.23-2.19c0-.13,1.3-6.1,2.11-6.39,0,0,.55-.62,1,0a10,10,0,0,1,.88,2.64C419.27,386,422.52,386.53,425.73,389.52Z"></path><path d="M426,392.65a7.54,7.54,0,0,0-7.06.92c-.37.25-.72-.35-.35-.6a8.21,8.21,0,0,1,7.6-1c.41.15.23.82-.19.67Z" style="fill:#fff"></path><path d="M405.62,401.36h0l20.92,0a.35.35,0,0,0,0-.69h0l-20.91,0a.35.35,0,1,0,0,.7Z" style="fill:#fff"></path><path d="M429.78,381.5l-21.34,1.05c-4.79-14.38-9.52-65.94-10-81.42-.59-18.5-7.73-64.92-1.42-74.58s35.88-2.25,35.88-2.25-4.54,56.81-3.11,74.83C431,314.76,432.92,360.68,429.78,381.5Z"></path><polygon points="406.13 377.36 407.52 383.94 430.64 383.25 431.49 376.93 406.13 377.36" style="fill:#CCC8CC"></polygon><path d="M382.86,369.09l0,22.48-9.63.73-4.74-21A14.32,14.32,0,0,1,382.86,369.09Z" style="fill:#ff8b7b"></path><path d="M382.88,389.57c1,2.63,1.05,13.38,1.05,13.38l-24.39,0a4.75,4.75,0,0,1,3.85-6.55c1.07-.15,4.79-1.59,5.71-2.55,0-.12,1.3-6.09,2.1-6.38,0,0,.56-.62,1,0a10,10,0,0,1,.88,2.64C376.42,386,379.67,386.57,382.88,389.57Z"></path><path d="M383.14,392.69a7.6,7.6,0,0,0-7.07.92c-.36.26-.71-.34-.35-.6a8.24,8.24,0,0,1,7.6-1c.42.16.24.83-.18.67Z" style="fill:#fff"></path><path d="M359.54,401.41h0l24.14,0A.35.35,0,0,0,384,401a.35.35,0,0,0-.35-.34h0l-24.14,0a.35.35,0,0,0,0,.7Z" style="fill:#fff"></path><path d="M387.16,381.5,366,382.55c-2.58-15.92-12.92-73.89-12.07-85,1-13.56,13.29-72.28,17.84-76.81S409.69,228,409.69,228,396,278.44,385.17,300.28C382.92,304.82,388.89,362.14,387.16,381.5Z"></path><polygon points="363.58 377.85 364.66 383.94 388.17 382.55 388.64 376.18 363.58 377.85" style="fill:#CCC8CC"></polygon><path d="M370.9,165.15s2,28.16-.33,39c-1.83,8.43-4.36,16.77-.26,19.18s62.85,10.43,64.81.31c2.71-14.08-4.7-44.26-3-58.49s.19-25.22-2.05-28.1S370.9,165.15,370.9,165.15Z" style="fill:#CCC8CC"></path><path d="M421.73,170.78c-9.9,2.27-50.22-.9-50.22-.9-.49-3.9-1.69-12.44-2.28-20.84-.11-1.47-.2-2.95-.25-4.4l0-.76c-.05-1.45-.08-2.87-.06-4.22,0-4.41.41-8.15,1.43-10.26,2.08-4.33,18.93-5.25,18.93-5.25,14.88-2.65,15.88.23,15.88.23s11.73,4.15,17.22,6.27c7,2.71,8.68,3,9.56,11.63C432.71,150.08,431.62,168.49,421.73,170.78Z" style="fill:#CCC8CC"></path><g style="opacity:0.2"><path d="M390.63,123.87s9.69,6,16.68,5.84,3-3.1,3-3.1Z"></path></g><path d="M391.17,123.87a4.46,4.46,0,0,1,4.41-2.3c3.05.38,10.44,0,12.08,1s2.63,4,2.63,4-2,1.65-6.87,1.15S391.17,123.87,391.17,123.87Z" style="fill:#CCC8CC"></path><g style="opacity:0.2"><path d="M371.51,221.7l-.69-.23a138.25,138.25,0,0,0,4.93-22.88c1.75-13.26-1.13-50.37-1.38-53.9l.72-.05c.25,3.53,3.14,40.71,1.37,54.05A139.14,139.14,0,0,1,371.51,221.7Z"></path></g><g style="opacity:0.2"><path d="M381.17,144c-4.76.57-9.23,1-12.19.63l0-.76c-.05-1.45-.08-2.87-.06-4.22A65.1,65.1,0,0,0,381.17,144Z"></path></g><g style="opacity:0.2"><path d="M392.1,220.22a123.38,123.38,0,0,0,24.06-1.42,48.38,48.38,0,0,0,10.24-2.31c2.37-.93,4.48-2.39,5.39-4.86.15-.42-.52-.6-.67-.19-1,2.81-3.88,4.16-6.58,4.95a70.7,70.7,0,0,1-9.9,1.94,122.24,122.24,0,0,1-22.54,1.19c-.45,0-.44.68,0,.7Z"></path></g><g style="opacity:0.30000000000000004"><path d="M401.59,262.19c.4-.82.81-1.64,1.19-2.48a83.69,83.69,0,0,0,4.73-13.87,50.23,50.23,0,0,0,10.27-2.11c.43-.13.24-.8-.18-.67a49.61,49.61,0,0,1-16.36,2.31.35.35,0,0,0,0,.7,53.87,53.87,0,0,0,5.54-.17A82.68,82.68,0,0,1,402,259.67a122.64,122.64,0,0,1-7,12.84c-.24.38.36.73.59.35,1.87-3.07,3.69-6.18,5.33-9.37.15,3.81.61,15.59,1.12,31.19.89,26.94,7.73,70.72,9.64,82.53h.7c-1.88-11.62-8.75-55.57-9.65-82.55C402.16,276.21,401.63,263.1,401.59,262.19Z" style="fill:#fff"></path><path d="M428.79,231.56a9,9,0,0,1-.73,4,3.63,3.63,0,0,1-3.62,1.88c-3.34-.33-4.73-3.95-5-6.82,0-.42-.7-.42-.66,0,.28,3.24,1.9,7.15,5.63,7.47a4.29,4.29,0,0,0,3.83-1.63c1-1.38,1.12-3.22,1.18-4.88A.33.33,0,0,0,428.79,231.56Z" style="fill:#fff"></path><path d="M426.87,299a113.44,113.44,0,0,0-18.43.5c-.44.05-.45.74,0,.69a113.44,113.44,0,0,1,18.43-.49C427.32,299.68,427.32,299,426.87,299Z" style="fill:#fff"></path><path d="M357.72,299c.48-8.45,11-44.34,11.12-44.7a.35.35,0,0,0-.67-.2c-.43,1.48-10.66,36.33-11.14,44.86-.41,7.34,10.57,75.2,11,78.09a.35.35,0,0,0,.35.29h0a.36.36,0,0,0,.29-.4C368.63,376.25,357.31,306.29,357.72,299Z" style="fill:#fff"></path><path d="M400.27,231a.33.33,0,0,0-.66,0c.09,4.67-3.17,9.63-8.35,9.12-5.36-.54-6.94-6.62-6.61-11.09,0-.42-.63-.42-.66,0-.35,4.86,1.54,11.21,7.27,11.75C396.79,241.24,400.37,236,400.27,231Z" style="fill:#fff"></path><path d="M363.71,250.6c7.93-3,10.5-11.69,12.38-19.14a.34.34,0,0,0-.66-.18c-1.82,7.16-4.24,15.76-11.91,18.65C363.11,250.09,363.29,250.76,363.71,250.6Z" style="fill:#fff"></path><path d="M381.47,299.63l-15.47-1c-.45,0-.44.66,0,.69l15.47,1C381.91,300.35,381.91,299.66,381.47,299.63Z" style="fill:#fff"></path></g><path d="M383.66,144.38l-.82-.12-.71-.11-1.38-.25c-.91-.19-1.8-.39-2.69-.6-1.78-.42-3.53-.94-5.29-1.5a63.92,63.92,0,0,1-10.4-4.43,44,44,0,0,1-10-7.28,30.05,30.05,0,0,1-4.41-5.47l-.13-.19-.16-.26-.32-.55c-.2-.35-.36-.69-.54-1-.31-.66-.58-1.31-.81-1.92a29.84,29.84,0,0,1-1-3.43,47.86,47.86,0,0,1-.9-6.08c-.17-1.94-.28-3.8-.29-5.64,0-3.68.09-7.24.39-10.77.58-7.06,1.62-11.29,3.18-18.18,1.45,1.51,4.82,1.42,8.32.73.66,6.64,1.17,10.72,1.94,17.22.42,3.25.82,6.46,1.39,9.54a47.25,47.25,0,0,0,2.08,8.31c.41,1.1.89,1.91,1,1.84a14.8,14.8,0,0,0,2.16,2,31.75,31.75,0,0,0,6.35,3.81,66.34,66.34,0,0,0,7.83,3c1.36.45,2.76.85,4.15,1.24.7.19,1.4.38,2.09.55l1.9.47Z" style="fill:#CCC8CC"></path><path d="M355.66,77.29a8.64,8.64,0,0,1-8.38-.44s-1.74-5.58-2.55-8.72l-1.39.12c-.31-2.44,2.52-3.45,2.86-3.56h0a15.88,15.88,0,0,1,6.3-1C357.28,63.62,355.66,77.29,355.66,77.29Z" style="fill:#ff8b7b"></path><g style="opacity:0.2"><path d="M348.15,67.09a.25.25,0,0,1-.25-.25c0-1.62-1.11-1.9-1.12-1.9a.26.26,0,0,1-.19-.31.25.25,0,0,1,.3-.18,2.25,2.25,0,0,1,1.51,2.39A.25.25,0,0,1,348.15,67.09Z"></path></g><g style="opacity:0.2"><path d="M350.53,66.58a.25.25,0,0,1-.25-.25c0-1.62-1.11-1.9-1.12-1.9a.25.25,0,0,1,.12-.49,2.27,2.27,0,0,1,1.5,2.39A.25.25,0,0,1,350.53,66.58Z"></path></g><g style="opacity:0.2"><path d="M352.8,66.43a.25.25,0,0,1-.25-.25c0-1.61-1.11-1.9-1.12-1.9a.24.24,0,0,1-.18-.3.24.24,0,0,1,.3-.18,2.25,2.25,0,0,1,1.5,2.38A.25.25,0,0,1,352.8,66.43Z"></path></g><g style="opacity:0.2"><path d="M344.55,68.22a.25.25,0,0,1-.22-.14,1.66,1.66,0,0,1,.29-1.64.25.25,0,0,1,.41.29,1.18,1.18,0,0,0-.25,1.13.25.25,0,0,1-.11.33Z"></path></g><rect x="351.84" y="403" width="82.49" height="9.32" style="fill:#CCC8CC"></rect><polygon points="436.19 452.56 427.86 452.56 417.45 428.34 367.5 428.34 357.08 452.56 348.76 452.56 362.26 412.27 374.36 412.4 369.16 424.48 415.79 424.48 410.6 412.4 422.69 412.27 436.19 452.56" style="fill:#CCC8CC"></polygon><g style="opacity:0.2"><polygon points="436.19 452.56 427.86 452.56 417.45 428.34 367.5 428.34 357.08 452.56 348.76 452.56 362.26 412.27 374.36 412.4 369.16 424.48 415.79 424.48 410.6 412.4 422.69 412.27 436.19 452.56"></polygon></g></g><g id="freepik--character-2--inject-71"><path d="M259.49,232.34c-.83,1-1.63,2-2.25,2.92a12.61,12.61,0,0,0,1.15.73,50.53,50.53,0,0,0,7.05,3.18l-1.23,8.64c-.92,0-1.67,0-2.49-.07s-1.62-.11-2.43-.2a36.65,36.65,0,0,1-5-.91,22,22,0,0,1-5.42-2.15,13.62,13.62,0,0,1-3.06-2.42,10.86,10.86,0,0,1-2.6-4.76,10.07,10.07,0,0,1-.26-3.08,9.58,9.58,0,0,1,.18-1.45l.15-.67.16-.54c.11-.34.24-.73.36-1l.31-.77c.22-.54.41-.93.62-1.36.81-1.66,1.57-3.09,2.39-4.44,1.62-2.72,3.25-5.25,4.94-7.75,3.39-5,6.89-9.75,10.55-14.39s7.37-9.18,11.4-13.56l13.31,11.54c-3.59,4.45-7.4,8.86-11.18,13.2l-11.32,12.95C263,228.09,261.15,230.23,259.49,232.34Z"></path><polygon points="307.96 418.37 311.14 441.72 318.75 442.1 321.22 419.6 307.96 418.37" style="fill:#ce7a63"></polygon><path d="M325.23,452.56h-17a4.3,4.3,0,0,1,.05-2.62c.07-.29.15-.62.26-1,0,0,0,0,0,0,.16-.53.34-1.17.54-1.87.78-2.85,1.69-6.58,1.69-6.58s2.83-6.06,6.15-4.54c2.9,1.32,2.21,5.12,2.21,5.12a7.49,7.49,0,0,0,2.49,4.2c1.37,1.22,2.72,2.16,3.37,3.67a4.85,4.85,0,0,1,.29.91s0,.08,0,.12A6.91,6.91,0,0,1,325.23,452.56Z"></path><g style="opacity:0.30000000000000004"><path d="M308.26,449.94a4.3,4.3,0,0,0-.05,2.62h17a6.91,6.91,0,0,0,.07-2.62Z" style="fill:#fff"></path></g><path d="M318.45,442a2.29,2.29,0,0,0-3.08.19c-.23.23-.58-.13-.35-.36a2.81,2.81,0,0,1,3.78-.19c.26.2-.1.55-.35.36Z" style="fill:#fff"></path><path d="M318.93,443.59a2.29,2.29,0,0,0-3.08.19.25.25,0,0,1-.35-.36,2.81,2.81,0,0,1,3.78-.19c.26.2-.1.55-.35.36Z" style="fill:#fff"></path><path d="M319.41,445.05a2.28,2.28,0,0,0-3.07.19c-.23.23-.59-.13-.36-.35a2.81,2.81,0,0,1,3.79-.2c.25.2-.11.56-.36.36Z" style="fill:#fff"></path><polygon points="256.08 422.19 248.13 443.65 240.93 441.32 243.41 418.67 256.08 422.19" style="fill:#ce7a63"></polygon><path d="M264.54,275.26s-14.7,62.78-16,75.53-10.61,79.46-10.61,79.46l17.39,3.82s19.78-71.79,21.2-78.69,19.31-56.63,19.31-56.63l-2.3-19.1Z" style="fill:#CCC8CC"></path><g style="opacity:0.2"><path d="M274.79,280a21.64,21.64,0,0,1-14.49,14.31.3.3,0,0,0,.16.58,22.25,22.25,0,0,0,14.9-14.74c.12-.37-.46-.52-.57-.15Z"></path></g><g style="opacity:0.2"><path d="M291.75,298.92c-7.67,15.42-12.1,32.18-17.52,48.45-5.63,16.88-10.13,34.12-14.17,51.44-2.27,9.76-4.4,19.54-6.5,29.34-.08.37.5.53.58.16,3.71-17.34,7.52-34.67,12.07-51.81,4.48-16.89,10-33.46,15.42-50.08a195.72,195.72,0,0,1,10.64-27.19c.17-.35-.35-.65-.52-.31Z"></path></g><g style="opacity:0.2"><path d="M239.31,425.36,256,429.57a.3.3,0,0,0,.15-.58l-16.63-4.21a.3.3,0,0,0-.16.58Z"></path></g><path d="M248.91,452.67l-6.53-.05a4.94,4.94,0,0,0-2.09-.62c-.78.09-3.47.58-3.47.58l-17.35-.13a13.88,13.88,0,0,1,.52-1.94,8.79,8.79,0,0,1,.83-1.79,4.9,4.9,0,0,1,4.16-2.45c2.43-.13,10.11-5.18,10.11-5.18a4.56,4.56,0,0,0,2.95-3.9,3.75,3.75,0,0,1,2.49-2.55c1.59-.22,2.47.8,2.68,2.38l.26,1.85,3.67-.55s3.74-1.84,3.54,0c-.11,1-.77,5.66-1.19,9.34-.1.85-.19,1.66-.27,2.37h0C249,451.59,248.91,452.67,248.91,452.67Z"></path><g style="opacity:0.30000000000000004"><path d="M219.47,452.45l17.35.13s2.69-.49,3.47-.58a4.94,4.94,0,0,1,2.09.62l6.53.05s.13-1.08.31-2.66l-29.23.5A13.88,13.88,0,0,0,219.47,452.45Z" style="fill:#fff"></path></g><path d="M231.27,443a.24.24,0,0,1,.3,0,3,3,0,0,1,1,1.21c.12.26-.27.52-.4.25a2.63,2.63,0,0,0-.9-1.07.23.23,0,0,1,0-.36Z" style="fill:#fff"></path><path d="M232.66,442.15a.25.25,0,0,1,.3,0,3.08,3.08,0,0,1,1,1.2c.13.27-.26.53-.39.26a2.64,2.64,0,0,0-.9-1.07.23.23,0,0,1,0-.36Z" style="fill:#fff"></path><path d="M234.09,441.41a.23.23,0,0,1,.29,0,3,3,0,0,1,1,1.21c.13.26-.26.52-.39.25a2.71,2.71,0,0,0-.9-1.07.23.23,0,0,1,0-.36Z" style="fill:#fff"></path><path d="M326.21,327.24c2.07-17.59.63-57,.63-57l-36.74.31s5.21,36.11,9.74,54.67Z" style="fill:#CCC8CC"></path><g style="opacity:0.2"><path d="M295.57,280c-.41,6-.8,12-1.21,17.94,0,.39-.61.39-.59,0,.21-3.06.41-6.14.61-9.21-1.47,1.13-3.2-.24-3.68-1.77a14.88,14.88,0,0,1,.13-7.86c.09-.38.67-.21.58.15a16.87,16.87,0,0,0-.5,5.29,7.35,7.35,0,0,0,.57,2.78c.47.92,1.67,1.71,2.62.87a.28.28,0,0,1,.32,0c.19-2.71.37-5.43.55-8.14C295,279.64,295.59,279.64,295.57,280Z"></path></g><g style="opacity:0.2"><path d="M313.14,281A15.1,15.1,0,0,0,327,296.22c.38,0,.38-.56,0-.59A14.5,14.5,0,0,1,313.73,281a.3.3,0,0,0-.59,0Z"></path></g><path d="M306.86,434.65l16.36,0c2.16-25.25,3.55-113.94,3.55-113.94l-31-16.46s3.76,38.55,5.24,51.34C301,355.62,303.73,416.86,306.86,434.65Z" style="fill:#CCC8CC"></path><g style="opacity:0.2"><path d="M298.35,299.72c2,16.85,3.63,33.74,5,50.65s2.6,33.74,3.79,50.62q1,14.36,2,28.71c0,.38.62.39.6,0-1.24-17-2.39-33.92-3.62-50.87s-2.56-33.73-4.18-50.56Q300.65,314,299,299.72c0-.38-.64-.38-.6,0Z"></path></g><g style="opacity:0.2"><path d="M306.44,430l16.87,0a.3.3,0,0,0,0-.6l-16.87,0a.3.3,0,0,0,0,.6Z"></path></g><g style="opacity:0.2"><path d="M317,358.32a11,11,0,0,0,7.56,0c.35-.13.2-.7-.16-.57a10.48,10.48,0,0,1-7.24,0c-.36-.13-.51.44-.16.57Z"></path></g><path d="M331.73,283c-.75-7.11-2.92-30.45-3-55,0-.69.08-1.37.13-2a100.58,100.58,0,0,1,3.21-16.49c1.21-5,1.91-9.29.31-14.29-1.3-4.09-3.44-6.25-6.09-7.58-.23-.12-.47-.23-.72-.34-3.4-1.49-7.56-1.86-11.88-3.23a25.16,25.16,0,0,1-6-2.75c-10.12-6.44-15.6,0-15.6,0s-1.61.35-3.86.94c-.91.24-1.93.51-3,.81l-.65.19c-3.61,1.06-7.56,2.44-9.5,3.84-2.69,1.94-3.39,11-3.58,20.65,0,.24,0,.48,0,.72l0,2.49c0,1.25,0,2.5,0,3.73h0c0,.27,0,.54,0,.81,0,3.11,0,6.09,0,8.7,0,.29,0,.58,0,.86,0,1.51-.07,2.89-.14,4.07,0,.51-.07,1-.11,1.42-.45,4.65-5.68,40.92-7.12,47.34C282.53,282,304.43,282.91,331.73,283Z"></path><path d="M309.05,166.42c-2.13,4.29-1.55,9.16-1.94,14.44-.86,1.39-7.82,14.28-12.89,7-1.65-2.38-1.52-6.24-2-7.36a20.81,20.81,0,0,0,1.62-1.88,12.73,12.73,0,0,0,.88-2.18,6.06,6.06,0,0,0,.16-.61c.08-.31.15-.64.21-1s.1-.84.13-1.27c0-.17,0-.36,0-.53v-.41h0l8.15-3.66Z" style="fill:#ce7a63"></path><path d="M313.33,145s-2.65-8.67-13.12-6.43c-6.6,1.42-11.44,3.73-11.44,9.53,0,3.87,3.35,7.14,5.71,7.25s20.12-3.79,20.12-3.79S319,147.26,313.33,145Z"></path><g style="opacity:0.2"><path d="M301.47,174.59a9.18,9.18,0,0,1-6.72,1.81,6.06,6.06,0,0,0,.16-.61c.08-.31.15-.64.21-1s.1-.84.13-1.27c0-.17,0-.36,0-.53v-.36l7.3-1.56C303.09,171.57,302.8,173.38,301.47,174.59Z"></path></g><path d="M313.25,158.51a10.6,10.6,0,0,0-11.2-14.14c-8.14.91-12.28,11.71-12.57,18.87-.32,7.95,7.93,14,15.23,9.8,4.85-2.77,6-7.19,8.54-14.53Z" style="fill:#ce7a63"></path><path d="M314.76,160s-1.52,4.26-1,6.4-.39,3-1.77,2.56a1.54,1.54,0,0,1-1.13-1.72s-.08,3.77-2.28,3-1.14-4.49-1.14-4.49S311.31,160.16,314.76,160Z"></path><path d="M309.21,146.05s-7.44,5.46-13.63,1.47S304.63,138.76,309.21,146.05Z"></path><path d="M306.18,160.39c1.05,1.57,2.28.25,5.37-.95a3.17,3.17,0,0,1,1.5-.23c-1,2.44-1.89,4.45-2.59,5.89a11.81,11.81,0,0,1-.67,1.18,75.26,75.26,0,0,0,6.53-6.72,5,5,0,0,0,.49-.81c0-.11-.06-.21-.1-.32a6,6,0,0,0-.63-1.27,7.89,7.89,0,0,0-1.53-1.69,16.47,16.47,0,0,0-6.18-3.09C307.89,154.76,305.31,159.11,306.18,160.39Z"></path><path d="M307.14,147.71s1.65,1.7,1.41,3.52a16.37,16.37,0,0,1-1,3.62s5.33,2.37,6.73,2.15,2.54-4.13,2.54-4.13-6-7.39-8.49-7.25S307.14,147.71,307.14,147.71Z"></path><path d="M313,146.15a4.89,4.89,0,0,1,4.94,3c1.73,3.51.41,7.59-1.09,9.6S308.39,153,313,146.15Z"></path><path d="M315.05,164.39a7.35,7.35,0,0,1-4.6,3.27c-2.53.57-3.65-1.73-2.83-4,.74-2.09,2.94-4.89,5.43-4.41a3.31,3.31,0,0,1,2,5.18Z" style="fill:#ce7a63"></path><path d="M300.79,159c-.17.61-.63,1-1,.9s-.58-.69-.41-1.3.63-1,1-.9.58.7.41,1.3Z"></path><path d="M294.15,157c-.17.61-.63,1-1,.9s-.58-.69-.41-1.3.63-1,1-.9.58.7.41,1.3Z"></path><path d="M298.74,164.33a12.41,12.41,0,0,1-6.19-1s-.34,2.74,2.06,3.47C297.51,167.68,298.74,164.33,298.74,164.33Z" style="fill:#fff"></path><path d="M294.87,161.65s-2.8.12-3.76,1.29,4.18,2.16,6.44,2.2,2.12-.92,1.19-1.81S294.87,161.65,294.87,161.65Z"></path><path d="M292.76,153.73a.3.3,0,0,0,.31-.08,1.62,1.62,0,0,1,1.14-.54,1.86,1.86,0,0,1,1.16.53.3.3,0,0,0,.43,0,.31.31,0,0,0,0-.44,2.52,2.52,0,0,0-1.6-.71,2.16,2.16,0,0,0-1.59.72.3.3,0,0,0,0,.43A.31.31,0,0,0,292.76,153.73Z"></path><path d="M303.07,156.86a.32.32,0,0,0,.14,0,.31.31,0,0,0,.24-.36,2.4,2.4,0,0,0-.94-1.47,2.18,2.18,0,0,0-1.73-.27.3.3,0,0,0-.23.36.29.29,0,0,0,.36.24,1.62,1.62,0,0,1,1.25.18,1.86,1.86,0,0,1,.69,1.07A.3.3,0,0,0,303.07,156.86Z"></path><path d="M297,156.84a6.8,6.8,0,0,1-2.87,2.65c-1.88.85.8,2.84.8,2.84Z" style="fill:#ba4d3c"></path><g style="opacity:0.30000000000000004"><path d="M317.36,268.26a.31.31,0,0,0,0-.62,7.85,7.85,0,0,1-6.69-4.11c-1.61-2.69-1.92-5.92-2-9,0-.39-.64-.4-.62,0,.12,3.36.47,7,2.43,9.82A8.37,8.37,0,0,0,317.36,268.26Z" style="fill:#fff"></path></g><g style="opacity:0.30000000000000004"><path d="M275.87,252.08c-.41,5.2-2.59,12-8.81,12.32-.4,0-.4.64,0,.62a9,9,0,0,0,6.64-3.85c1.92-2.62,2.54-5.92,2.79-9.09C276.52,251.68,275.9,251.69,275.87,252.08Z" style="fill:#fff"></path></g><g style="opacity:0.30000000000000004"><path d="M294.62,245.56a1.12,1.12,0,1,0,1.12,1.11A1.12,1.12,0,0,0,294.62,245.56Z" style="fill:#fff"></path></g><g style="opacity:0.30000000000000004"><path d="M293.93,254.57a1.12,1.12,0,1,0,1.12,1.12A1.12,1.12,0,0,0,293.93,254.57Z" style="fill:#fff"></path></g><g style="opacity:0.30000000000000004"><path d="M293.5,264.46a1.12,1.12,0,1,0,1.12,1.12A1.12,1.12,0,0,0,293.5,264.46Z" style="fill:#fff"></path></g><g style="opacity:0.30000000000000004"><path d="M291.87,241.19l-2.67,39c0,.4.6.4.62,0l2.67-39C292.52,240.8,291.9,240.8,291.87,241.19Z" style="fill:#fff"></path></g><g style="opacity:0.30000000000000004"><path d="M324.84,233.7c.2-3.93.5-7.86.87-11.78h-.62a278.44,278.44,0,0,0-.54,45.84q.48,6.78,1.29,13.53c0,.39.66.4.61,0A280.28,280.28,0,0,1,324.84,233.7Z" style="fill:#fff"></path></g><path d="M293.6,239.93l12-41.91c-2.67-3-6.88-6.19-9.09-8.24l-7.64,5.93,2.41,44.22Z" style="fill:#fff"></path><path d="M293.4,239.93l5.28-20.85-.89-20.5-3.62-.36-3.45,18.9c.18,7.6.35,16.64.54,22.81Z" style="fill:#CCC8CC"></path><polygon points="291.32 193.79 295.63 200.49 301.97 194.9 296.48 189.78 291.32 193.79" style="fill:#CCC8CC"></polygon><path d="M292.76,179.48c-.79-1-5.12.34-6,3.09l2.06,13.14,7.64-5.93S291.68,185.38,292.76,179.48Z" style="fill:#fff"></path><path d="M307.1,180.86a19.76,19.76,0,0,1-10.62,8.92s5.95,5,9.09,8.24l7-14.71C312.64,182.27,309.77,179.41,307.1,180.86Z" style="fill:#fff"></path><path d="M312.47,183.09s4.53,0,7.09,2.38l-7.05,19.41-4.28.56,1,5.4-6,23L292.77,241C291.84,241.05,304.88,194,312.47,183.09Z"></path><g style="opacity:0.30000000000000004"><path d="M312.47,183.09s4.53,0,7.09,2.38l-7.05,19.41-4.28.56,1,5.4-6,23L292.77,241C291.84,241.05,304.88,194,312.47,183.09Z" style="fill:#fff"></path></g><path d="M286.78,182.57s-4.81.09-7.06,2.23L281.78,204h5l-4.31,6.74,1.87,23.7,7.92,6.68S291.87,209.05,286.78,182.57Z"></path><g style="opacity:0.30000000000000004"><path d="M286.78,182.57s-4.81.09-7.06,2.23L281.78,204h5l-4.31,6.74,1.87,23.7,7.92,6.68S291.87,209.05,286.78,182.57Z" style="fill:#fff"></path></g><path d="M350.94,237.85a14.64,14.64,0,0,1-.83,2.91,13.79,13.79,0,0,1-1.37,2.59,16.58,16.58,0,0,1-3.37,3.67,22.42,22.42,0,0,1-3.39,2.26,35.5,35.5,0,0,1-6.4,2.57,52.33,52.33,0,0,1-6.06,1.42,88.09,88.09,0,0,1-11.7,1.24c-3.88.13-8.31.58-12.25.28l.33-9.16a153.68,153.68,0,0,0,20.35-5.13c1.57-.57,3.1-1.16,4.49-1.81a19,19,0,0,0,3.58-2.08,5.64,5.64,0,0,0,1-.87c0-.3-.08-.73-.13-1a20.55,20.55,0,0,0-1.09-3.59c-.52-1.37-1.2-2.81-1.9-4.28-1.42-2.93-3.14-5.91-4.91-8.88s-3.67-6-5.61-8.9l-2.94-4.42-2.92-4.31,13.89-10.23a33.5,33.5,0,0,1,3.73,4.48c1.1,1.57,2.15,3.16,3.19,4.76,2.06,3.22,4.05,6.5,5.9,9.91A104.54,104.54,0,0,1,347.68,220a59.16,59.16,0,0,1,2.1,6,34.66,34.66,0,0,1,1.37,7.15A19.27,19.27,0,0,1,350.94,237.85Z"></path><rect x="261.39" y="225.78" width="37.58" height="45.98" transform="translate(-9.85 485.97) rotate(-80.88)" style="fill:#CCC8CC"></rect><g style="opacity:0.2"><polygon points="277.36 229.28 257.74 243.47 258.82 236.74 270.62 228.2 277.36 229.28"></polygon></g><g style="opacity:0.2"><polygon points="291.07 231.48 255.54 257.18 256.62 250.44 284.34 230.4 291.07 231.48"></polygon></g><g style="opacity:0.2"><polygon points="304.79 233.68 261.72 264.83 255 263.75 298.06 232.6 304.79 233.68"></polygon></g><g style="opacity:0.2"><polygon points="304.9 239.77 303.82 246.51 275.45 267.03 268.71 265.95 304.9 239.77"></polygon></g><g style="opacity:0.2"><polygon points="302.7 253.5 301.62 260.22 289.16 269.24 282.42 268.15 302.7 253.5"></polygon></g><rect x="257.78" y="223.53" width="51.67" height="7.68" transform="translate(39.62 -42.07) rotate(9.12)" style="fill:#CCC8CC"></rect><g style="opacity:0.30000000000000004"><rect x="257.78" y="223.53" width="51.67" height="7.68" transform="translate(39.62 -42.07) rotate(9.12)"></rect></g><path d="M303,223.57a31.26,31.26,0,0,0-13.72-1.28c4.34-2,10.42-5.33,11.21-9.06a4.39,4.39,0,0,0-1.61-4.21,4.54,4.54,0,0,0-4.93-1c-3.25,1.19-6.59,5.46-8.43,10.31-.24-5.19-2.08-10.3-4.8-12.46a4.52,4.52,0,0,0-5-.62,4.37,4.37,0,0,0-2.84,3.49c-.42,3.8,4.31,8.91,7.82,12.14a31.06,31.06,0,0,0-13.43-3.07.5.5,0,0,0-.46.51.49.49,0,0,0,.51.46,31.86,31.86,0,0,1,16.81,5.08L283,231a.48.48,0,0,0,.4.54.49.49,0,0,0,.56-.4l1.14-7.06a31.92,31.92,0,0,1,17.55.45.49.49,0,0,0,.34-.91ZM294.28,209a3.86,3.86,0,0,1,2-.24,3.73,3.73,0,0,1,1.94,1,3.48,3.48,0,0,1,1.32,3.32c-1,4.51-11.34,8.76-14.27,9.88l.09-.52v-.08C286.53,216.46,290.54,210.32,294.28,209Zm-20.43-.08a3.44,3.44,0,0,1,2.3-2.73,3.64,3.64,0,0,1,2.14-.34,3.77,3.77,0,0,1,1.83.85c3.18,2.49,5.07,9.72,4.26,15.68,0,.13-.05.27-.06.4C281.91,220.77,273.34,213.47,273.85,208.88Z" style="fill:#CCC8CC"></path><g style="opacity:0.5"><path d="M303,223.57a31.26,31.26,0,0,0-13.72-1.28c4.34-2,10.42-5.33,11.21-9.06a4.39,4.39,0,0,0-1.61-4.21,4.54,4.54,0,0,0-4.93-1c-3.25,1.19-6.59,5.46-8.43,10.31-.24-5.19-2.08-10.3-4.8-12.46a4.52,4.52,0,0,0-5-.62,4.37,4.37,0,0,0-2.84,3.49c-.42,3.8,4.31,8.91,7.82,12.14a31.06,31.06,0,0,0-13.43-3.07.5.5,0,0,0-.46.51.49.49,0,0,0,.51.46,31.86,31.86,0,0,1,16.81,5.08L283,231a.48.48,0,0,0,.4.54.49.49,0,0,0,.56-.4l1.14-7.06a31.92,31.92,0,0,1,17.55.45.49.49,0,0,0,.34-.91ZM294.28,209a3.86,3.86,0,0,1,2-.24,3.73,3.73,0,0,1,1.94,1,3.48,3.48,0,0,1,1.32,3.32c-1,4.51-11.34,8.76-14.27,9.88l.09-.52v-.08C286.53,216.46,290.54,210.32,294.28,209Zm-20.43-.08a3.44,3.44,0,0,1,2.3-2.73,3.64,3.64,0,0,1,2.14-.34,3.77,3.77,0,0,1,1.83.85c3.18,2.49,5.07,9.72,4.26,15.68,0,.13-.05.27-.06.4C281.91,220.77,273.34,213.47,273.85,208.88Z" style="fill:#fff"></path></g><path d="M304,245.46s-7.3,1.76-8,3.18,1.57,1.34,1.57,1.34-2.48.24-2.52,1.3c-.05,1.28,2.31,1.19,2.31,1.19s-2,.28-2,1.22,2.7,1.07,2.7,1.07-1.38.47-1,1.12,6.05.94,7.74-.1,1.79-8.32,1.49-9.91.35-2.46-1.61-4.9l-.72,4.49Z" style="fill:#ce7a63"></path><path d="M297.57,250.1h0l4.29-.62a.11.11,0,0,0,.09-.13.12.12,0,0,0-.12-.11l-4.29.62a.12.12,0,0,0-.09.14A.12.12,0,0,0,297.57,250.1Z" style="opacity:0.2"></path><path d="M297.49,252.58h0l4.17-.26a.12.12,0,0,0,.1-.13.1.1,0,0,0-.11-.11l-4.17.27a.11.11,0,0,0-.1.12A.1.1,0,0,0,297.49,252.58Z" style="opacity:0.2"></path><path d="M298.22,254.88l3.11-.11a.12.12,0,0,0,.1-.12.11.11,0,0,0-.11-.12l-3.11.11a.12.12,0,0,0-.1.12C298.12,254.83,298.16,254.88,298.22,254.88Z" style="opacity:0.2"></path><path d="M259,236.73s6.49,3.78,6.74,5.34-1.89.84-1.89.84,2.3.94,2,2c-.32,1.23-2.55.47-2.55.47s1.84.84,1.55,1.74-2.9.25-2.9.25,1.19.84.63,1.35-6.07-.84-7.39-2.31.67-8.49,1.42-9.93.36-2.45,2.94-4.22l-.59,4.5Z" style="fill:#ce7a63"></path><path d="M263.78,243h0l-3.94-1.83a.11.11,0,0,1,0-.15.11.11,0,0,1,.14-.07l3.93,1.83a.11.11,0,0,1,.05.15C263.88,243,263.83,243,263.78,243Z" style="opacity:0.2"></path><path d="M263.14,245.42h0L259.22,244a.12.12,0,0,1-.06-.15.13.13,0,0,1,.14-.08l3.92,1.46a.12.12,0,0,1,.06.15A.11.11,0,0,1,263.14,245.42Z" style="opacity:0.2"></path><path d="M261.78,247.41l-2.94-1a.1.1,0,0,1-.06-.14.11.11,0,0,1,.14-.08l2.94,1a.12.12,0,0,1,.06.15A.11.11,0,0,1,261.78,247.41Z" style="opacity:0.2"></path></g><g id="freepik--character-1--inject-71"><path d="M93.39,174.84c2.55,4,19.17,4.91,29.83,1.81-.7-4.06-.39-11.16,0-16.43.54-7-1.38-12.38-6.31-15.2-4.61-2.65-15.7-2.51-19.15.16,0,0-8.17,4.27-5,13.21C95.8,167,95.56,171.29,93.39,174.84Z"></path><path d="M118.77,165.25a1,1,0,0,1,0,.25,3.82,3.82,0,1,1-2.57.54,2.12,2.12,0,0,1-.11-.21,4.08,4.08,0,1,0,2.68-.58Z" style="fill:#fff"></path><path d="M139.39,273.43s8.2,61.26,7.44,68.93c-4.27,42.7-19.44,87.13-19.44,87.13l-8.28.67c-.81,0,.29-76.3,4.06-87,1.69-4.81-11.6-61.58-11.6-61.58Z" style="fill:#ff8b7b"></path><path d="M131.85,246.32s10.32,33.35,13.59,56.2l-30.19,6.89L100,257.53Z"></path><path d="M112.11,273a292,292,0,0,0,8.66,30.42c.11.31-.38.44-.49.13a291.17,291.17,0,0,1-8.67-30.41c-.07-.32.42-.46.5-.14Z" style="fill:#CCC8CC"></path><polygon points="145.44 297.07 146.82 303.55 114.23 310.7 112.88 304.38 145.44 297.07" style="fill:#CCC8CC"></polygon><g style="opacity:0.2"><path d="M146.37,342.5a8.53,8.53,0,0,1-7.38-.12c-.59-.29-.07-1.16.52-.87a7.47,7.47,0,0,0,6.35.11c.6-.27,1.11.61.51.88Z"></path></g><path d="M111.06,268c3.42,23.34-4.6,56.95-8.2,77.15-.9,5-20.4,84.71-20.4,84.71l-7.52-1.28s-4.77-62.23,3.37-83.43c3.77-9.8,3.6-84.72,3.6-84.72Z" style="fill:#ff8b7b"></path><path d="M116.19,254.57l-5.48,55.18s-26.38-2.13-32.94-3.66c0,0-1.55-36.09,4.64-51.52S116.19,254.57,116.19,254.57Z"></path><path d="M87,256.28a337.65,337.65,0,0,0-2.34,35.54c0,3.36,0,6.72,0,10.08a.26.26,0,0,1-.51,0,335.49,335.49,0,0,1,1.26-35.59q.45-5,1-10c0-.33.55-.33.51,0Z" style="fill:#CCC8CC"></path><polygon points="112 303.69 111.32 310.28 76.75 307.02 76.68 300.52 112 303.69" style="fill:#CCC8CC"></polygon><g style="opacity:0.2"><path d="M103.19,342a8.55,8.55,0,0,1-7.39-.06c-.59-.29-.07-1.17.52-.88a7.47,7.47,0,0,0,6.35.06c.6-.27,1.12.61.52.88Z"></path></g><path d="M91.93,229.28s-.53,8-1.18,14.44c0,0,19.3,11.57,38.6-3.46l-3.81-10.72Z" style="fill:#CCC8CC"></path><path d="M101.51,235.65c-5.9.12-10.56-.65-10.76-2.89-.28-3.31-1.63-7.42-3.37-11.76-.43-1.07-.88-2.14-1.35-3.23-.72-1.69-1.5-3.41-2.26-5.09-4.36-9.61-8.14-15.51-4.6-20.79,3.24-4.84,18.67-12.28,18.67-12.28l10.56.58s2.89.93,6.24,2.4c4,1.74,8.59,4.24,9.7,6.82,2.37,5.52-1.44,14.69-.19,29.16a70.86,70.86,0,0,0,1.94,11.35C126.71,232.37,112.13,235.45,101.51,235.65Z" style="fill:#CCC8CC"></path><g style="opacity:0.2"><path d="M93.44,211.37l-6,9.64h0c-.43-1.07-.88-2.14-1.35-3.23Z"></path></g><path d="M124.34,189.41s8.17,25.28,14.28,26.13a137.19,137.19,0,0,0,13.15-5.22c6.07-3.08,7.06-3.13,11.2,1.21s5.15,7,2.87,11.16-25.81,16-32,15.83-14.89-16.21-14.89-16.21Z" style="fill:#CCC8CC"></path><path d="M158.92,211.71a7.51,7.51,0,0,1,1.58-4.85c1.72-1.83,2.6-3.75,4-5s1.09,1.24.68,2.54-.88,2.79.15,2.94,9.38-3.09,10.78-2.71.22,1.32.22,1.32,1.88-.71,2.56,0-.36,1.51-.36,1.51,1.28-.43,1.48.5-6.1,4.62-6.29,4.94c0,0,3.09-2.81,4.09-2.09s-1.18,2.37-2.88,3.72a9.72,9.72,0,0,1-6.17,2.16c-2.23-.08-6,1-7.53-1.1A19.74,19.74,0,0,1,158.92,211.71Z" style="fill:#ff8b7b"></path><g style="opacity:0.2"><path d="M178.3,207.74c-2.14.83-4.25,1.73-6.31,2.7a12.52,12.52,0,0,1,.59,1.69c.07.29-.39.29-.47,0a12.76,12.76,0,0,0-2.59-4.88c-.2-.24.16-.46.36-.22a12.83,12.83,0,0,1,.85,1.13.14.14,0,0,1,.08-.09,22.35,22.35,0,0,1,5-2.07c.27-.07.47.35.19.43a21.83,21.83,0,0,0-4.87,2,.23.23,0,0,1-.18,0,12.49,12.49,0,0,1,.87,1.55q3.09-1.46,6.31-2.7C178.37,207.22,178.56,207.64,178.3,207.74Z"></path></g><g style="opacity:0.2"><path d="M169.24,210.07a5.43,5.43,0,0,0-6,3c-.11.25-.55,0-.44-.21,1.07-2.39,3.56-3.61,6.47-3.21A.22.22,0,1,1,169.24,210.07Z"></path></g><path d="M81.89,189.41s-22,16.32-25.47,24.29,12.56,31.81,21.18,34,15.7-10,11.22-15.23S80,221.69,80,221.69s9.55-5.89,10.75-8C95,206.29,86,186.13,81.89,189.41Z" style="fill:#CCC8CC"></path><g style="opacity:0.2"><path d="M164.62,222.83A11.48,11.48,0,0,1,153.48,210c.05-.4-.58-.4-.63,0a12.11,12.11,0,0,0,11.77,13.43C165,223.47,165,222.84,164.62,222.83Z"></path><path d="M128.44,235.12c-.3.28.15.72.44.44a6.76,6.76,0,0,1,10.36,1.27c.22.34.77,0,.55-.32A7.4,7.4,0,0,0,128.44,235.12Z"></path><path d="M129,205.8a29.06,29.06,0,0,1-3.34-12.94.26.26,0,0,0-.51,0,29.66,29.66,0,0,0,3.41,13.2C128.73,206.35,129.17,206.09,129,205.8Z"></path><path d="M115.27,195.63a.25.25,0,0,0-.14-.49,20,20,0,0,1-16.54-2.31c-.28-.17-.53.27-.26.45A20.56,20.56,0,0,0,115.27,195.63Z"></path><path d="M123.81,220.35a34.49,34.49,0,0,1-20.47,1.13c-.34-.08-.48.43-.15.51A35.08,35.08,0,0,0,124,220.86C124.27,220.74,124.13,220.23,123.81,220.35Z"></path><path d="M87.27,230.44a11.48,11.48,0,0,0-14.52,14,.32.32,0,0,0,.61-.17,10.85,10.85,0,0,1,13.74-13.2A.32.32,0,0,0,87.27,230.44Z"></path><path d="M59.1,209.85a8.36,8.36,0,0,1-2.22,11c-.32.24,0,.78.32.54a9,9,0,0,0,2.44-11.87A.31.31,0,0,0,59.1,209.85Z"></path></g><path d="M124.34,195.49s-.55,3.79,3.88,8.9c5.35,6.18-2.61,12.93-4.33,14.88S124.34,195.49,124.34,195.49Z" style="fill:#CCC8CC"></path><path d="M115.11,182.63s3.19,14.27,2.64,16.57c-.43,1.82-15.86,3.15-17.75,1.15s-6.78-18.58-6.78-18.58A9.58,9.58,0,0,0,86,186c1.48-1.52,9.48,20.16,7.22,35.65-1.1,7.55-5.57,21.53-5.57,21.53a132.77,132.77,0,0,0,40.81-5.87s-3.35-7.27-3.53-11.87-1.57-1.91,1.17-6.54,7.07-7.43,2.78-13.69-8.43-11.1-8.15-19.78A9.82,9.82,0,0,0,115.11,182.63Z"></path><path d="M95.4,189.51a6.93,6.93,0,0,0-5.86,2.13c-.22.24-.59-.12-.36-.36A7.43,7.43,0,0,1,95.4,189c.32,0,.32.54,0,.51Z" style="fill:#CCC8CC"></path><path d="M120.78,189.33a5.63,5.63,0,0,0-4.06.06c-.31.12-.44-.37-.14-.49a6.07,6.07,0,0,1,4.34-.07c.3.12.17.61-.14.5Z" style="fill:#CCC8CC"></path><path d="M124.17,207.47a69.43,69.43,0,0,1-24.56,2.1c-.33,0-.33-.54,0-.51A68.87,68.87,0,0,0,124,207a.26.26,0,0,1,.14.5Z" style="fill:#CCC8CC"></path><path d="M99.72,209.39a61.32,61.32,0,0,0-.09,11.09c.08.91.17,1.82.29,2.73a3.28,3.28,0,0,0,1.07,2.45,4.7,4.7,0,0,0,2.51.55c.94.06,1.89.1,2.83.12a72.78,72.78,0,0,0,11.43-.67,15,15,0,0,0,4.49-1c1.72-.84,2.32-2.45,2.4-4.28a61.55,61.55,0,0,0-.9-12.78c0-.32.44-.46.49-.13a66.86,66.86,0,0,1,.94,12.63,5.73,5.73,0,0,1-1.45,4.17,7.44,7.44,0,0,1-3.87,1.62,68.16,68.16,0,0,1-12.52,1,24.4,24.4,0,0,1-5.67-.33c-1.46-.37-2-1.55-2.21-2.92a57.76,57.76,0,0,1-.25-14.21c0-.33.55-.33.51,0Z" style="fill:#CCC8CC"></path><path d="M95.14,203.57a2.09,2.09,0,1,0,2.09-2.08A2.09,2.09,0,0,0,95.14,203.57Z" style="fill:#CCC8CC"></path><path d="M119.48,201a2.09,2.09,0,1,0,2.09-2.09A2.09,2.09,0,0,0,119.48,201Z" style="fill:#CCC8CC"></path><path d="M82.71,263c5.54,14.48,45.32,4.78,50.15-.52s-5.14-26.8-5.14-26.8a57.26,57.26,0,0,1-34.8,3.56l-.59-.13c-.52-.11-1-.24-1.58-.37,0,0-.28.32-.75.9-.12.15-.25.31-.39.5C86.7,243.87,79.45,254.44,82.71,263Z"></path><path d="M116.53,248.53q-1.74,19.91-3.47,39.8-.48,5.69-1,11.35c0,.33-.54.33-.51,0q1.73-19.9,3.46-39.8.5-5.69,1-11.35c0-.33.54-.33.52,0Z" style="fill:#CCC8CC"></path><path d="M115.26,257.52c-1.47.68-2.68-.56-3.09-1.9a17.33,17.33,0,0,1-.35-6.88c0-.32.55-.32.51,0a19.76,19.76,0,0,0,0,4.92c.16,1.24.68,4.34,2.68,3.41.3-.13.56.31.26.45Z" style="fill:#CCC8CC"></path><path d="M89.61,240.13a49,49,0,0,0,29.09.35,47.77,47.77,0,0,0,8.79-3.64c.34-.18,0-.69-.33-.5a48.2,48.2,0,0,1-34.4,4.08l-.54-.14c-.75-.2-1.48-.42-2.22-.65C89.88,239.78,89.75,239.94,89.61,240.13Z" style="fill:#CCC8CC"></path><path d="M122.46,233.92a10.55,10.55,0,0,1,1.29,4c0,.38.64.35.6,0a11.15,11.15,0,0,0-1.39-4.31c-.19-.34-.69,0-.5.33Z" style="fill:#CCC8CC"></path><path d="M93.43,234.86a18.07,18.07,0,0,0-1.22,5.43c0,.39.58.35.61,0A16.63,16.63,0,0,1,94,235.14c.14-.36-.39-.64-.54-.28Z" style="fill:#CCC8CC"></path><path d="M104.41,236.63a13.36,13.36,0,0,0-.47,5.07c0,.39.64.36.6,0a12.93,12.93,0,0,1,.46-4.91c.1-.38-.49-.5-.59-.13Z" style="fill:#CCC8CC"></path><path d="M114.13,238a1.49,1.49,0,1,0,1.41-1.58A1.49,1.49,0,0,0,114.13,238Z" style="fill:#CCC8CC"></path><path d="M93.88,245.22c-1.66,4.88-4.41,11.06-10.45,11.17-.39,0-.35.61,0,.6,6.34-.12,9.26-6.5,11-11.64.13-.37-.47-.49-.59-.13Z" style="fill:#CCC8CC"></path><path d="M123.83,243.56a14.39,14.39,0,0,0,8.73,7.22c.37.11.5-.48.13-.59a13.8,13.8,0,0,1-8.35-7c-.18-.34-.68,0-.51.33Z" style="fill:#CCC8CC"></path><path d="M71.14,452.51h5.6l1.2-3.1s4.65,2.8,7.85,3.1,11.1.1,11.1.1a10.8,10.8,0,0,0,.72-2.36c.23-1.3.18-2.78-1-3.45-2.31-1.33-8.83-3.88-10.88-5.83s-2.4-7.73-2.4-7.73,2.21-8,1.45-8.66c-1.93-1.77-5.6,4.62-6.32,4.62s-.15-3.28-2.56-3.28-1.7,5-2.15,7.88c-.26,1.67-1.1,7.72-1.76,12.49C71.52,449.73,71.14,452.51,71.14,452.51Z" style="fill:#CCC8CC"></path><path d="M83.54,435.35a3,3,0,0,0-2.33.24c-.45.24-.86-.45-.4-.69a3.78,3.78,0,0,1,2.94-.32c.49.15.28.92-.21.77Z" style="fill:#fff"></path><path d="M83.77,437.33a3,3,0,0,0-2.37.29c-.46.25-.86-.44-.41-.69a3.84,3.84,0,0,1,3-.37.4.4,0,0,1-.22.77Z" style="fill:#fff"></path><path d="M84.27,439.29a3.24,3.24,0,0,0-2.67.23c-.45.24-.86-.45-.4-.69a4,4,0,0,1,3.28-.31c.48.17.28.94-.21.77Z" style="fill:#fff"></path><path d="M71.14,452.51h5.6l1.2-3.1s4.65,2.8,7.85,3.1,11.1.1,11.1.1a10.8,10.8,0,0,0,.72-2.36c-3.68.31-10.46.71-13.18-.24a29.56,29.56,0,0,1-7-3.72H72C71.52,449.73,71.14,452.51,71.14,452.51Z"></path><path d="M73.37,438.34a10.38,10.38,0,0,1,4.27,8.78c0,.25-.41.25-.4,0a10,10,0,0,0-4.07-8.44c-.2-.15,0-.49.2-.34Z"></path><path d="M115.57,452.51h5.6l1.2-3.1s4.65,2.8,7.85,3.1,11.1.1,11.1.1a11.47,11.47,0,0,0,.72-2.36c.23-1.3.18-2.78-1-3.45-2.32-1.33-8.83-3.88-10.88-5.83s-2.4-7.73-2.4-7.73,2.21-8,1.45-8.66c-1.93-1.77-5.61,4.62-6.32,4.62s-.15-3.28-2.56-3.28-1.71,5-2.15,7.88c-.26,1.67-1.1,7.72-1.76,12.49C116,449.73,115.57,452.51,115.57,452.51Z" style="fill:#CCC8CC"></path><path d="M128,435.35a3,3,0,0,0-2.33.24c-.45.24-.86-.45-.4-.69a3.77,3.77,0,0,1,2.94-.32c.49.15.28.92-.21.77Z" style="fill:#fff"></path><path d="M128.2,437.33a3,3,0,0,0-2.38.29.4.4,0,0,1-.4-.69,3.84,3.84,0,0,1,3-.37.4.4,0,0,1-.22.77Z" style="fill:#fff"></path><path d="M128.7,439.29a3.24,3.24,0,0,0-2.67.23c-.45.24-.86-.45-.4-.69a4,4,0,0,1,3.28-.31c.48.17.28.94-.21.77Z" style="fill:#fff"></path><path d="M115.57,452.51h5.6l1.2-3.1s4.65,2.8,7.85,3.1,11.1.1,11.1.1a11.47,11.47,0,0,0,.72-2.36c-3.68.31-10.46.71-13.18-.24a29.56,29.56,0,0,1-7-3.72h-5.41C116,449.73,115.57,452.51,115.57,452.51Z"></path><path d="M117.8,438.34a10.38,10.38,0,0,1,4.27,8.78c0,.25-.41.25-.4,0a10,10,0,0,0-4.07-8.44c-.2-.15,0-.49.2-.34Z"></path><path d="M97.83,180.29a57.88,57.88,0,0,1,7.25,5.26,12.93,12.93,0,0,0,2.42,1.65c2.33,1.24,4.45,1.94,5,.82a3.4,3.4,0,0,0,.3-.79,5,5,0,0,0-1.73-5.14,4.85,4.85,0,0,1-1.73-5,13.84,13.84,0,0,1,1-3.18L109,172.37l-7.06-7.12C102.12,170,101.54,177.71,97.83,180.29Z" style="fill:#ff8b7b"></path><g style="opacity:0.2"><path d="M109.36,177.12a13.84,13.84,0,0,1,1-3.18L109,172.37l-3.86.53A9.19,9.19,0,0,0,109.36,177.12Z"></path></g><path d="M99.85,157c.28,7.81.23,11.12,4,15.22,5.67,6.16,15,4.09,17-3.64,1.82-7,1.06-18.56-6.35-21.85S99.57,149.19,99.85,157" style="fill:#ff8b7b"></path><path d="M121.2,156.53s4.79-5.94-4.76-10.42c0,0-7.32-5.91-15.06-.7s-7.24,15.37.1,23.41c0,0-1.41-7.7,1.31-10.09s5.71-4.52,4.26-6.84a3.91,3.91,0,0,1,2.42,3l4-1.08a7.65,7.65,0,0,0-1.23-3.08,7.15,7.15,0,0,1,2.73,3l3.44.65s-.51-3.15-1.48-4.28C116.9,150.11,120.76,153.08,121.2,156.53Z"></path><path d="M117.42,167.05s-4-1.27-5-2.82c0,0-.22,3,1.88,3.86A2.41,2.41,0,0,0,117.42,167.05Z" style="fill:#fff"></path><path d="M113.44,158.9c0,.63.31,1.16.72,1.17s.76-.5.78-1.14-.31-1.15-.72-1.16-.77.49-.78,1.13"></path><path d="M119.83,159.23c0,.63.31,1.15.73,1.16s.76-.49.78-1.13-.31-1.15-.73-1.16-.76.49-.78,1.13"></path><path d="M120.43,158.13l1.53-.41s-.81,1.18-1.53.41"></path><path d="M117.1,159.41s1.05,1.71,2.2,3.2a1,1,0,0,1-.34,1.45,9.1,9.1,0,0,1-2,.62Z" style="fill:#ff5652"></path><path d="M96.94,162.32a5,5,0,0,0,3,2.83c1.72.53,2.63-1.35,2.19-3.29-.4-1.75-1.77-4.13-3.52-3.79s-2.43,2.53-1.68,4.25" style="fill:#ff8b7b"></path><path d="M102.53,163.56a1.5,1.5,0,0,1,0,.24,3.84,3.84,0,1,1-2.62.19,1.55,1.55,0,0,1-.08-.23,4.09,4.09,0,1,0,2.74-.2Z" style="fill:#fff"></path><path d="M111.44,157.48a.39.39,0,0,0,.23-.19,3,3,0,0,1,2.14-1.64.37.37,0,0,0-.08-.74,3.69,3.69,0,0,0-2.72,2,.37.37,0,0,0,.43.53"></path><path d="M122.08,156.53a.41.41,0,0,0,.25-.11.37.37,0,0,0,0-.53,3.73,3.73,0,0,0-3.23-1.09.38.38,0,0,0-.28.45.36.36,0,0,0,.44.28,3,3,0,0,1,2.55.89.39.39,0,0,0,.27.11"></path><path d="M114,157.8l1.54-.4s-.81,1.17-1.54.4"></path><path d="M108.34,143.27a22,22,0,0,0-4.89.72h0c-.47.13-.94.28-1.38.43a23.79,23.79,0,0,0-4.43,2c-.47.27-.91.54-1.32.8a22,22,0,0,0-2.92,2.26l-.13-2.28a0,0,0,0,1,0,0l-.19-2.86h0L92.63,137l-.13-1.94-.45-7.46,3.27,3.15.73.7,2.5,2.41.72.7,2.5,2.39.72.7,2.5,2.41.73.68Z" style="fill:#CCC8CC"></path><path d="M101.65,160.21c-3.9-5.59-1.79-15.43-1.7-15.84l.49.1c0,.1-2.15,10,1.62,15.45Z" style="fill:#CCC8CC"></path><g style="opacity:0.5"><path d="M96.05,131.45A29.64,29.64,0,0,0,92.63,137l-.13-1.94a30.43,30.43,0,0,1,2.82-4.31Z"></path><path d="M99.27,134.56a32.92,32.92,0,0,0-6,12.62l-.19-2.86h0a33,33,0,0,1,5.48-10.45Z"></path><path d="M102.49,137.65a31.42,31.42,0,0,0-4.86,8.77c-.47.27-.91.54-1.32.8A32.3,32.3,0,0,1,101.77,137Z"></path><path d="M105.72,140.74a27.28,27.28,0,0,0-2.27,3.25h0c-.47.13-.94.28-1.38.43a28.49,28.49,0,0,1,2.93-4.36Z"></path></g><circle cx="92.04" cy="127.75" r="3.12" style="fill:#CCC8CC"></circle><g style="opacity:0.2"><circle cx="92.04" cy="127.75" r="3.12"></circle></g><path d="M87.49,235.67s6.18,3.46,7,4.89-6.77,7.69-9.43,8.32-.9-2.19-.9-2.19-3.35.25-4.47-2.44S81.39,235.13,87.49,235.67Z" style="fill:#ff8b7b"></path></g><g id="freepik--Confetti--inject-71"><path d="M445.45,221.34a7,7,0,0,0,4.43,6.73l1.63-2.78a7.48,7.48,0,0,1-3.74-6.53Z" style="fill:#CCC8CC"></path><g style="opacity:0.30000000000000004"><path d="M445.45,221.34a7,7,0,0,0,4.43,6.73l1.63-2.78a7.48,7.48,0,0,1-3.74-6.53Z" style="fill:#fff"></path></g><path d="M157.39,125.17a7,7,0,0,1-5.23,6.13l-1.28-3a7.49,7.49,0,0,0,4.52-6Z" style="fill:#CCC8CC"></path><g style="opacity:0.30000000000000004"><path d="M157.39,125.17a7,7,0,0,1-5.23,6.13l-1.28-3a7.49,7.49,0,0,0,4.52-6Z" style="fill:#fff"></path></g><path d="M222.62,221.63a7,7,0,0,1-5,6.34l-1.39-2.92a7.46,7.46,0,0,0,4.27-6.19Z" style="fill:#CCC8CC"></path><g style="opacity:0.5"><path d="M222.62,221.63a7,7,0,0,1-5,6.34l-1.39-2.92a7.46,7.46,0,0,0,4.27-6.19Z" style="fill:#fff"></path></g><path d="M348.87,153.31a7,7,0,0,1-2.93,7.51l-2.18-2.39a7.48,7.48,0,0,0,2.3-7.16Z" style="fill:#CCC8CC"></path><g style="opacity:0.5"><path d="M348.87,153.31a7,7,0,0,1-2.93,7.51l-2.18-2.39a7.48,7.48,0,0,0,2.3-7.16Z" style="fill:#fff"></path></g><path d="M36.67,263.34a7,7,0,0,0,5.49,5.91l1.14-3a7.47,7.47,0,0,1-4.77-5.82Z" style="fill:#CCC8CC"></path><g style="opacity:0.8"><path d="M36.67,263.34a7,7,0,0,0,5.49,5.91l1.14-3a7.47,7.47,0,0,1-4.77-5.82Z" style="fill:#fff"></path></g><path d="M223.79,115.84a7,7,0,0,0,5.49,5.91l1.14-3a7.45,7.45,0,0,1-4.76-5.82Z" style="fill:#CCC8CC"></path><g style="opacity:0.8"><path d="M223.79,115.84a7,7,0,0,0,5.49,5.91l1.14-3a7.45,7.45,0,0,1-4.76-5.82Z" style="fill:#fff"></path></g><path d="M441.72,101.27a7,7,0,0,1-6.68,4.52l-.44-3.2a7.48,7.48,0,0,0,6-4.6Z" style="fill:#CCC8CC"></path><g style="opacity:0.8"><path d="M441.72,101.27a7,7,0,0,1-6.68,4.52l-.44-3.2a7.48,7.48,0,0,0,6-4.6Z" style="fill:#fff"></path></g><path d="M148.89,256.24a7,7,0,0,1-4.17,6.91L143,260.43a7.49,7.49,0,0,0,3.47-6.67Z" style="fill:#CCC8CC"></path><g style="opacity:0.8"><path d="M148.89,256.24a7,7,0,0,1-4.17,6.91L143,260.43a7.49,7.49,0,0,0,3.47-6.67Z" style="fill:#fff"></path></g></g></svg>
