<svg xmlns:dc="http://purl.org/dc/elements/1.1/" xmlns:cc="http://creativecommons.org/ns#" xmlns:rdf="http://www.w3.org/1999/02/22-rdf-syntax-ns#" xmlns:svg="http://www.w3.org/2000/svg" xmlns="http://www.w3.org/2000/svg" xmlns:sodipodi="http://sodipodi.sourceforge.net/DTD/sodipodi-0.dtd" xmlns:inkscape="http://www.inkscape.org/namespaces/inkscape" viewBox="0 0 30 30" version="1.1" id="svg822" inkscape:version="0.92.4 (f8dce91, 2019-08-02)" sodipodi:docname="event.svg" fill="#000000"><g id="SVGRepo_bgCarrier" stroke-width="0"></g><g id="SVGRepo_tracerCarrier" stroke-linecap="round" stroke-linejoin="round"></g><g id="SVGRepo_iconCarrier"> <defs id="defs816"></defs> <sodipodi:namedview id="base" pagecolor="#ffffff" bordercolor="#666666" borderopacity="1.0" inkscape:pageopacity="0.0" inkscape:pageshadow="2" inkscape:zoom="17.833333" inkscape:cx="4.4733517" inkscape:cy="14.994233" inkscape:document-units="px" inkscape:current-layer="layer1" showgrid="true" units="px" inkscape:window-width="1366" inkscape:window-height="713" inkscape:window-x="0" inkscape:window-y="0" inkscape:window-maximized="1" inkscape:lockguides="true"> <inkscape:grid type="xygrid" id="grid816"></inkscape:grid> </sodipodi:namedview> <metadata id="metadata819"> <rdf:rdf> <cc:work rdf:about=""> <dc:format>image/svg+xml</dc:format> <dc:type rdf:resource="http://purl.org/dc/dcmitype/StillImage"></dc:type> <dc:title> </dc:title> </cc:work> </rdf:rdf> </metadata> <g inkscape:label="Layer 1" inkscape:groupmode="layer" id="layer1" transform="translate(0,-289.0625)"> <path style="color:#45062E;font-style:normal;font-variant:normal;font-weight:normal;font-stretch:normal;font-size:medium;line-height:normal;font-family:sans-serif;font-variant-ligatures:normal;font-variant-position:normal;font-variant-caps:normal;font-variant-numeric:normal;font-variant-alternates:normal;font-feature-settings:normal;text-indent:0;text-align:start;text-decoration:none;text-decoration-line:none;text-decoration-style:solid;text-decoration-color:#45062E;letter-spacing:normal;word-spacing:normal;text-transform:none;writing-mode:lr-tb;direction:ltr;text-orientation:mixed;dominant-baseline:auto;baseline-shift:baseline;text-anchor:start;white-space:normal;shape-padding:0;clip-rule:nonzero;display:inline;overflow:visible;visibility:visible;opacity:1;isolation:auto;mix-blend-mode:normal;color-interpolation:sRGB;color-interpolation-filters:linearRGB;solid-color:#45062E;solid-opacity:1;vector-effect:none;fill:#45062E;fill-opacity:1;fill-rule:nonzero;stroke:none;stroke-width:1.99999976;stroke-linecap:butt;stroke-linejoin:miter;stroke-miterlimit:4;stroke-dasharray:none;stroke-dashoffset:0;stroke-opacity:1;color-rendering:auto;image-rendering:auto;shape-rendering:auto;text-rendering:auto;enable-background:accumulate" d="M 9 4 L 9 7 L 7 7 C 5.3552974 7 4 8.3553 4 10 L 4 24 C 4 25.6447 5.3552974 27 7 27 L 23 27 C 24.644703 27 26 25.6447 26 24 L 26 10 C 26 8.3553 24.644703 7 23 7 L 21 7 L 21 4 L 19 4 L 19 7 L 11 7 L 11 4 L 9 4 z M 7 9 L 23 9 C 23.571297 9 24 9.4287 24 10 L 24 24 C 24 24.5713 23.571297 25 23 25 L 7 25 C 6.4287028 25 6 24.5713 6 24 L 6 10 C 6 9.4287 6.4287028 9 7 9 z M 17 17 C 16.446 17 16 17.446 16 18 L 16 22 C 16 22.554 16.446 23 17 23 L 21 23 C 21.554 23 22 22.554 22 22 L 22 18 C 22 17.446 21.554 17 21 17 L 17 17 z " transform="translate(0,289.0625)" id="rect894"></path> <g id="g825" transform="translate(0,1)" style="fill:#45062E"></g> </g> </g></svg>