<svg width="24" height="24" viewBox="0 0 24 24" fill="none" xmlns="http://www.w3.org/2000/svg">
<g clip-path="url(#clip0_216_17176)">
<path d="M14 8H4.66667C4.48986 8 4.32029 7.92976 4.19526 7.80474C4.07024 7.67971 4 7.51014 4 7.33333V4.66667C4 4.48986 4.07024 4.32029 4.19526 4.19526C4.32029 4.07024 4.48986 4 4.66667 4H14C14.1768 4 14.3464 4.07024 14.4714 4.19526C14.5964 4.32029 14.6667 4.48986 14.6667 4.66667V7.33333C14.6667 7.51014 14.5964 7.67971 14.4714 7.80474C14.3464 7.92976 14.1768 8 14 8ZM5.33333 6.66667H13.3333V5.29333H5.33333V6.66667Z" fill="#45062E"/>
<path d="M14 9.38672H4.66667C4.48986 9.38672 4.32029 9.45696 4.19526 9.58198C4.07024 9.70701 4 9.87657 4 10.0534V12.6667C4 12.8435 4.07024 13.0131 4.19526 13.1381C4.32029 13.2631 4.48986 13.3334 4.66667 13.3334H12.24L14.6667 10.8667V10.0534C14.6667 9.87657 14.5964 9.70701 14.4714 9.58198C14.3464 9.45696 14.1768 9.38672 14 9.38672ZM13.3333 12.0001H5.33333V10.6667H13.3333V12.0001Z" fill="#45062E"/>
<path d="M7.37325 21.0068V20.9668L7.58659 20.0402H2.66659V2.66683H15.9999V9.50016L17.3333 8.24016V2.00016C17.3333 1.82335 17.263 1.65378 17.138 1.52876C17.013 1.40373 16.8434 1.3335 16.6666 1.3335H1.99992C1.82311 1.3335 1.65354 1.40373 1.52851 1.52876C1.40349 1.65378 1.33325 1.82335 1.33325 2.00016V20.6668C1.33325 20.8436 1.40349 21.0132 1.52851 21.1382C1.65354 21.2633 1.82311 21.3335 1.99992 21.3335H7.33325C7.33875 21.2238 7.35211 21.1146 7.37325 21.0068Z" fill="#45062E"/>
<path d="M14.6667 12.7798L14.1467 13.3065C14.2757 13.2799 14.394 13.2156 14.4865 13.1219C14.5791 13.0282 14.6418 12.9091 14.6667 12.7798Z" fill="black"/>
<path d="M4 17.9598C4 18.1366 4.07024 18.3062 4.19526 18.4312C4.32029 18.5563 4.48986 18.6265 4.66667 18.6265H7.89333L8.09333 17.7598L8.18 17.3932V17.3598H5.33333V15.9998H9.56L10.8933 14.6665H4.66667C4.48986 14.6665 4.32029 14.7367 4.19526 14.8618C4.07024 14.9868 4 15.1564 4 15.3332V17.9598Z" fill="#45062E"/>
<path d="M22.3267 11.1133L20.08 8.86668C19.9803 8.7667 19.8618 8.68738 19.7314 8.63325C19.601 8.57913 19.4612 8.55127 19.32 8.55127C19.1788 8.55127 19.039 8.57913 18.9086 8.63325C18.7781 8.68738 18.6597 8.7667 18.56 8.86668L9.41999 18.06L8.66665 21.2667C8.63845 21.405 8.63782 21.5476 8.66479 21.6862C8.69176 21.8247 8.74581 21.9566 8.82384 22.0743C8.90187 22.192 9.00235 22.2931 9.11951 22.3719C9.23668 22.4506 9.36824 22.5055 9.50665 22.5333C9.57537 22.5403 9.64461 22.5403 9.71332 22.5333C9.795 22.5467 9.8783 22.5467 9.95999 22.5333L13.1933 21.82L22.3267 12.6667C22.4264 12.5675 22.5056 12.4497 22.5596 12.3198C22.6137 12.1899 22.6415 12.0507 22.6415 11.91C22.6415 11.7694 22.6137 11.6301 22.5596 11.5002C22.5056 11.3704 22.4264 11.2525 22.3267 11.1533V11.1133ZM12.5133 20.6067L10.0733 21.1467L10.6667 18.7267L17.52 11.8L19.4 13.68L12.5133 20.6067ZM20.1533 12.9267L18.2733 11.0467L19.3333 10L21.2267 11.8933L20.1533 12.9267Z" fill="#45062E"/>
</g>
<defs>
<clipPath id="clip0_216_17176">
<rect width="24" height="24" fill="white"/>
</clipPath>
</defs>
</svg>
