<svg width="24" height="24" viewBox="0 0 24 24" fill="none" xmlns="http://www.w3.org/2000/svg">
<path d="M3 19C2.45 19 1.97933 18.8043 1.588 18.413C1.19667 18.0217 1.00067 17.5507 1 17V7C1 6.45 1.196 5.97934 1.588 5.588C1.98 5.19667 2.45067 5.00067 3 5H13C13.55 5 14.021 5.196 14.413 5.588C14.805 5.98 15.0007 6.45067 15 7V17C15 17.55 14.8043 18.021 14.413 18.413C14.0217 18.805 13.5507 19.0007 13 19H3ZM3 17H13V7H3V17ZM18 19C17.7167 19 17.4793 18.904 17.288 18.712C17.0967 18.52 17.0007 18.2827 17 18V6C17 5.71667 17.096 5.47934 17.288 5.288C17.48 5.09667 17.7173 5.00067 18 5C18.2827 4.99934 18.5203 5.09534 18.713 5.288C18.9057 5.48067 19.0013 5.718 19 6V18C19 18.2833 18.904 18.521 18.712 18.713C18.52 18.905 18.2827 19.0007 18 19ZM22 19C21.7167 19 21.4793 18.904 21.288 18.712C21.0967 18.52 21.0007 18.2827 21 18V6C21 5.71667 21.096 5.47934 21.288 5.288C21.48 5.09667 21.7173 5.00067 22 5C22.2827 4.99934 22.5203 5.09534 22.713 5.288C22.9057 5.48067 23.0013 5.718 23 6V18C23 18.2833 22.904 18.521 22.712 18.713C22.52 18.905 22.2827 19.0007 22 19Z" fill="#45062E"/>
</svg>
