<svg width="29" height="22" viewBox="0 0 29 22" fill="none" xmlns="http://www.w3.org/2000/svg">
<path d="M6.64916 2.23167C6.77524 2.0812 6.83729 1.88729 6.822 1.69158C6.80671 1.49587 6.71529 1.31395 6.56738 1.18489C6.41946 1.05582 6.22684 0.989894 6.03086 1.00126C5.83488 1.01262 5.65117 1.10037 5.51916 1.24567L4.22716 2.72567C3.49454 3.56524 3.0804 4.63564 3.05716 5.74967L3.00016 8.46867C2.99812 8.56716 3.01551 8.66509 3.05132 8.75687C3.08713 8.84864 3.14067 8.93246 3.20887 9.00354C3.27707 9.07463 3.35861 9.13158 3.44883 9.17115C3.53904 9.21072 3.63617 9.23214 3.73466 9.23417C3.83315 9.23621 3.93108 9.21883 4.02285 9.18301C4.11463 9.1472 4.19845 9.09367 4.26953 9.02546C4.34061 8.95726 4.39757 8.87572 4.43714 8.78551C4.47671 8.69529 4.49812 8.59816 4.50016 8.49967L4.55616 5.78167C4.5722 5.0194 4.85574 4.28703 5.35716 3.71267L6.64916 2.23167Z" fill="black"/>
<path fill-rule="evenodd" clip-rule="evenodd" d="M8.64222 6.7C8.70938 5.63014 9.18174 4.62608 9.96315 3.89224C10.7446 3.15839 11.7763 2.74993 12.8482 2.75H13.4052V2C13.4052 1.73478 13.5106 1.48043 13.6981 1.29289C13.8857 1.10536 14.14 1 14.4052 1C14.6704 1 14.9248 1.10536 15.1123 1.29289C15.2999 1.48043 15.4052 1.73478 15.4052 2V2.75H15.9622C17.0342 2.74993 18.0659 3.15839 18.8473 3.89224C19.6287 4.62608 20.1011 5.63014 20.1682 6.7L20.3892 10.234C20.4734 11.5815 20.9259 12.88 21.6972 13.988C21.8566 14.2171 21.954 14.4835 21.9799 14.7613C22.0058 15.0392 21.9594 15.319 21.8451 15.5736C21.7309 15.8281 21.5527 16.0488 21.3279 16.2142C21.1031 16.3795 20.8393 16.4838 20.5622 16.517L17.1552 16.925V18C17.1552 18.7293 16.8655 19.4288 16.3498 19.9445C15.834 20.4603 15.1346 20.75 14.4052 20.75C13.6759 20.75 12.9764 20.4603 12.4607 19.9445C11.945 19.4288 11.6552 18.7293 11.6552 18V16.925L8.24822 16.516C7.97132 16.4827 7.70773 16.3784 7.48307 16.2131C7.25841 16.0478 7.08031 15.8273 6.96608 15.5729C6.85184 15.3184 6.80536 15.0388 6.83114 14.7611C6.85693 14.4834 6.9541 14.2171 7.11322 13.988C7.88452 12.8799 8.33695 11.5814 8.42122 10.234L8.64222 6.7ZM12.8482 4.25C12.1578 4.24992 11.4933 4.51297 10.99 4.98561C10.4867 5.45825 10.1825 6.10493 10.1392 6.794L9.91922 10.328C9.81757 11.949 9.27314 13.511 8.34522 14.844C8.33369 14.8606 8.32664 14.8798 8.32476 14.8999C8.32288 14.92 8.32622 14.9403 8.33448 14.9587C8.34273 14.9771 8.35561 14.9931 8.37186 15.005C8.38811 15.017 8.40718 15.0246 8.42722 15.027L12.1642 15.476C13.6532 15.654 15.1572 15.654 16.6462 15.476L20.3832 15.027C20.4033 15.0246 20.4223 15.017 20.4386 15.005C20.4548 14.9931 20.4677 14.9771 20.476 14.9587C20.4842 14.9403 20.4876 14.92 20.4857 14.8999C20.4838 14.8798 20.4768 14.8606 20.4652 14.844C19.5376 13.5109 18.9935 11.9489 18.8922 10.328L18.6712 6.794C18.628 6.10493 18.3237 5.45825 17.8204 4.98561C17.3172 4.51297 16.6526 4.24992 15.9622 4.25H12.8482ZM14.4052 19.25C13.7152 19.25 13.1552 18.69 13.1552 18V17.25H15.6552V18C15.6552 18.69 15.0952 19.25 14.4052 19.25Z" fill="#45062E"/>
<path d="M22.2436 1.18479C22.0938 1.31556 22.0021 1.50048 21.9885 1.69888C21.975 1.89728 22.0409 2.09292 22.1716 2.24279L23.4636 3.72279C23.9649 4.29755 24.2481 5.0303 24.2636 5.79279L24.3206 8.50979C24.3247 8.7087 24.4077 8.89783 24.5512 9.03558C24.6948 9.17333 24.8872 9.2484 25.0861 9.24429C25.285 9.24018 25.4741 9.15722 25.6119 9.01366C25.7496 8.8701 25.8247 8.6777 25.8206 8.47879L25.7636 5.76079C25.7404 4.64676 25.3262 3.57636 24.5936 2.73679L23.3016 1.25679C23.1708 1.10698 22.9859 1.01523 22.7875 1.00173C22.5891 0.98823 22.3935 1.05408 22.2436 1.18479Z" fill="black"/>
</svg>
