<svg width="21" height="21" viewBox="0 0 21 21" fill="none" xmlns="http://www.w3.org/2000/svg">
<path fill-rule="evenodd" clip-rule="evenodd" d="M10.4999 3.5C10.8509 3.5 11.1969 3.526 11.5339 3.576L12.0419 5.115C12.4869 5.242 12.9099 5.423 13.3019 5.651L14.7619 4.947C15.2789 5.344 15.7389 5.812 16.1269 6.336L15.3969 7.783C15.6179 8.179 15.7919 8.605 15.9109 9.053L17.4409 9.586C17.5252 10.233 17.5195 10.8886 17.4239 11.534L15.8849 12.042C15.7588 12.4825 15.5787 12.9057 15.3489 13.302L16.0529 14.762C15.6554 15.2791 15.1879 15.7385 14.6639 16.127L13.2169 15.397C12.8166 15.6205 12.39 15.7932 11.9469 15.911L11.4139 17.441C10.7669 17.5253 10.1113 17.5196 9.46591 17.424L8.95791 15.885C8.51745 15.7589 8.09425 15.5788 7.69791 15.349L6.23791 16.053C5.72077 15.6555 5.26137 15.188 4.87291 14.664L5.60291 13.217C5.37992 12.8165 5.20728 12.3899 5.08891 11.947L3.55891 11.413C3.4747 10.7663 3.48042 10.1111 3.57591 9.466L5.11491 8.958C5.24191 8.513 5.42291 8.09 5.65091 7.698L4.94691 6.238C5.34445 5.72086 5.81192 5.26146 6.33591 4.873L7.78291 5.603C8.1832 5.37947 8.60983 5.2068 9.05291 5.089L9.58691 3.559C9.88965 3.51961 10.1946 3.49991 10.4999 3.5Z" stroke="#45062E" stroke-width="0.933" stroke-linecap="round" stroke-linejoin="round"/>
<path d="M10.5 13.5C12.1569 13.5 13.5 12.1569 13.5 10.5C13.5 8.84315 12.1569 7.5 10.5 7.5C8.84315 7.5 7.5 8.84315 7.5 10.5C7.5 12.1569 8.84315 13.5 10.5 13.5Z" stroke="#45062E" stroke-linecap="round" stroke-linejoin="round"/>
</svg>
