<svg width="24" height="24" viewBox="0 0 24 24" fill="none" xmlns="http://www.w3.org/2000/svg">
<g clip-path="url(#clip0_216_17179)">
<path d="M8 11.9998C8 12.8839 7.57857 13.7317 6.82843 14.3569C6.07828 14.982 5.06087 15.3332 4 15.3332C2.93913 15.3332 1.92172 14.982 1.17157 14.3569C0.421427 13.7317 0 12.8839 0 11.9998C0 11.1158 0.421427 10.2679 1.17157 9.64281C1.92172 9.01769 2.93913 8.6665 4 8.6665C5.06087 8.6665 6.07828 9.01769 6.82843 9.64281C7.57857 10.2679 8 11.1158 8 11.9998Z" stroke="#45062E" stroke-width="1.5"/>
<path d="M16 4.6665L8 9.33317M16 19.3332L8 14.6665" stroke="#45062E" stroke-width="1.5" stroke-linecap="round"/>
<path d="M24 20.6667C24 21.5507 23.5786 22.3986 22.8284 23.0237C22.0783 23.6488 21.0609 24 20 24C18.9391 24 17.9217 23.6488 17.1716 23.0237C16.4214 22.3986 16 21.5507 16 20.6667C16 19.7826 16.4214 18.9348 17.1716 18.3096C17.9217 17.6845 18.9391 17.3333 20 17.3333C21.0609 17.3333 22.0783 17.6845 22.8284 18.3096C23.5786 18.9348 24 19.7826 24 20.6667ZM24 3.33333C24 4.21739 23.5786 5.06523 22.8284 5.69036C22.0783 6.31548 21.0609 6.66667 20 6.66667C18.9391 6.66667 17.9217 6.31548 17.1716 5.69036C16.4214 5.06523 16 4.21739 16 3.33333C16 2.44928 16.4214 1.60143 17.1716 0.976311C17.9217 0.351189 18.9391 0 20 0C21.0609 0 22.0783 0.351189 22.8284 0.976311C23.5786 1.60143 24 2.44928 24 3.33333Z" stroke="#45062E" stroke-width="1.5"/>
</g>
<defs>
<clipPath id="clip0_216_17179">
<rect width="24" height="24" fill="white"/>
</clipPath>
</defs>
</svg>
