<svg width="17" height="16" viewBox="0 0 17 16" fill="none" xmlns="http://www.w3.org/2000/svg">
<path d="M8.45315 0.384888C6.93115 0.384888 5.44334 0.836211 4.17785 1.68178C2.91236 2.52736 1.92603 3.7292 1.34359 5.13534C0.761147 6.54148 0.608754 8.08875 0.90568 9.5815C1.20261 11.0742 1.93551 12.4454 3.01173 13.5216C4.08794 14.5978 5.45911 15.3308 6.95186 15.6277C8.44461 15.9246 9.99188 15.7722 11.398 15.1898C12.8042 14.6073 14.006 13.621 14.8516 12.3555C15.6972 11.09 16.1485 9.60221 16.1485 8.08022C16.1461 6.04002 15.3346 4.08408 13.8919 2.64144C12.4493 1.19881 10.4933 0.387284 8.45315 0.384888ZM14.6071 5.21333H11.5607C11.1976 3.81375 10.5353 2.50953 9.61952 1.39056C10.6967 1.5805 11.7123 2.02705 12.5805 2.69244C13.4486 3.35783 14.1438 4.2225 14.6071 5.21333ZM15.2431 8.08022C15.2437 8.74471 15.1463 9.40565 14.9542 10.0418H11.7584C11.9787 8.74335 11.9787 7.41709 11.7584 6.11866H14.9542C15.1463 6.75478 15.2437 7.41573 15.2431 8.08022ZM8.45315 14.7065C8.01731 14.2619 7.63289 13.7697 7.30714 13.2391C6.86755 12.524 6.526 11.7531 6.29166 10.9471H10.6146C10.3803 11.7531 10.0387 12.524 9.59915 13.2391C9.2734 13.7697 8.88898 14.2619 8.45315 14.7065ZM6.07287 10.0418C5.82641 8.74568 5.82641 7.41475 6.07287 6.11866H10.8334C11.0799 7.41475 11.0799 8.74568 10.8334 10.0418H6.07287ZM1.66315 8.08022C1.66264 7.41573 1.76 6.75478 1.9521 6.11866H5.14793C4.92762 7.41709 4.92762 8.74335 5.14793 10.0418H1.9521C1.76 9.40565 1.66264 8.74471 1.66315 8.08022ZM8.45315 1.45393C8.88898 1.89853 9.2734 2.39076 9.59915 2.92133C10.0387 3.63641 10.3803 4.40731 10.6146 5.21333H6.29166C6.526 4.40731 6.86755 3.63641 7.30714 2.92133C7.63289 2.39076 8.01731 1.89853 8.45315 1.45393ZM7.28678 1.39056C6.37101 2.50953 5.70874 3.81375 5.34559 5.21333H2.29915C2.7625 4.2225 3.45765 3.35783 4.3258 2.69244C5.19395 2.02705 6.20958 1.5805 7.28678 1.39056ZM2.29915 10.9471H5.34559C5.70874 12.3467 6.37101 13.6509 7.28678 14.7699C6.20958 14.5799 5.19395 14.1334 4.3258 13.468C3.45765 12.8026 2.7625 11.9379 2.29915 10.9471ZM9.61725 14.7699C10.5338 13.6511 11.1969 12.3469 11.5607 10.9471H14.6071C14.1438 11.9379 13.4486 12.8026 12.5805 13.468C11.7123 14.1334 10.6967 14.5799 9.61952 14.7699H9.61725Z" fill="#45062E"/>
</svg>
